<?xml version="1.0" encoding="utf-8"?>
<!-- Generator: Adobe Illustrator 16.0.0, SVG Export Plug-In . SVG Version: 6.00 Build 0)  -->
<!DOCTYPE svg PUBLIC "-//W3C//DTD SVG 1.1//EN" "http://www.w3.org/Graphics/SVG/1.1/DTD/svg11.dtd">
<svg version="1.1" id="Layer_1" xmlns="http://www.w3.org/2000/svg" xmlns:xlink="http://www.w3.org/1999/xlink" x="0px" y="0px"
	 width="100px" height="20px" viewBox="0 0 100 20" enable-background="new 0 0 100 20" xml:space="preserve">
<g>
	<g>
		<path fill="#5FBA46" d="M36.609,2.7c-2.258-1.418-4.278-0.989-5.741,1.229c-0.28,0.424-0.525,0.872-0.841,1.402
			c-0.189-0.359-0.285-0.646-0.466-0.861c-0.558-0.667-1.055-1.438-1.746-1.929c-1.579-1.125-4.172-0.481-5.644,1.274
			c-1.692,2.018-1.739,4.346-0.04,6.775c1.794,2.564,4.16,4.54,6.673,6.351c0.153,0.11,0.307,0.22,0.46,0.329
			c0.067,0.048,0.129,0.094,0.188,0.136l0.991,0.713l1.19-0.87c0.279-0.213,0.555-0.429,0.826-0.653
			c2.222-1.832,4.284-3.812,5.678-6.377C39.703,7.341,39.064,4.241,36.609,2.7z"/>
		<path fill="#5FBA46" d="M56.674,2.7c-2.257-1.418-4.276-0.989-5.74,1.229c-0.281,0.424-0.525,0.872-0.841,1.402
			c-0.189-0.359-0.284-0.646-0.465-0.861c-0.558-0.667-1.056-1.438-1.746-1.929c-1.578-1.125-4.172-0.481-5.644,1.274
			c-1.691,2.018-1.738,4.346-0.04,6.775c1.794,2.564,4.16,4.54,6.672,6.351c0.153,0.11,0.307,0.22,0.46,0.329
			c0.068,0.048,0.129,0.094,0.188,0.136l0.99,0.713l1.191-0.87c0.277-0.213,0.556-0.429,0.825-0.653
			c2.221-1.832,4.284-3.812,5.678-6.377C59.768,7.341,59.13,4.241,56.674,2.7z"/>
		<path fill="#5FBA46" d="M76.739,2.7c-2.258-1.418-4.278-0.989-5.74,1.229c-0.281,0.424-0.525,0.872-0.842,1.402
			c-0.188-0.359-0.285-0.646-0.466-0.861c-0.559-0.667-1.056-1.438-1.745-1.929c-1.577-1.125-4.173-0.481-5.644,1.274
			c-1.691,2.018-1.738,4.346-0.04,6.775c1.795,2.564,4.16,4.54,6.673,6.351c0.153,0.11,0.306,0.22,0.46,0.329
			c0.066,0.048,0.129,0.094,0.188,0.136l0.991,0.713l1.19-0.87c0.278-0.213,0.554-0.429,0.825-0.653
			c2.222-1.832,4.284-3.812,5.679-6.377C79.832,7.341,79.194,4.241,76.739,2.7z"/>
	</g>
	<g>
		<path fill="#5FBA46" d="M6.413,14.705c-1.423,0.482-2.9,0.808-4.342,1.24c-0.477,0.144-0.958,0.365-0.83,1.038
			c0.104,0.541,0.538,0.881,1.21,0.821c0.577-0.051,1.155-0.159,1.714-0.311c2.558-0.697,4.901-1.883,7.202-3.177
			c2.619-1.472,4.772-3.416,6.368-5.952c-0.785,0.306-1.58,0.41-2.269,0.423C12.981,11.572,9.932,13.512,6.413,14.705z"/>
		<path fill="#5FBA46" d="M93.586,14.705c1.424,0.482,2.9,0.808,4.343,1.24c0.477,0.144,0.959,0.365,0.83,1.038
			c-0.104,0.541-0.538,0.881-1.211,0.821c-0.576-0.051-1.155-0.159-1.714-0.311c-2.559-0.697-4.902-1.883-7.202-3.177
			c-2.618-1.472-4.771-3.416-6.369-5.952c0.787,0.306,1.581,0.41,2.27,0.423C87.02,11.572,90.067,13.512,93.586,14.705z"/>
	</g>
</g>
</svg>
