<?xml version="1.0" encoding="utf-8"?>
<!-- Generator: Adobe Illustrator 16.0.0, SVG Export Plug-In . SVG Version: 6.00 Build 0)  -->
<!DOCTYPE svg PUBLIC "-//W3C//DTD SVG 1.1//EN" "http://www.w3.org/Graphics/SVG/1.1/DTD/svg11.dtd">
<svg version="1.1" id="Layer_1" xmlns="http://www.w3.org/2000/svg" xmlns:xlink="http://www.w3.org/1999/xlink" x="0px" y="0px"
	 width="90px" height="27.667px" viewBox="0 0 90 27.667" enable-background="new 0 0 90 27.667" xml:space="preserve">
<path fill="none" stroke="#231F20" stroke-miterlimit="10" d="M24.931,2.895c-3.384-2.125-6.411-1.483-8.603,1.842
	c-0.419,0.637-0.788,1.309-1.26,2.102c-0.284-0.537-0.428-0.967-0.698-1.289c-0.836-1.001-1.581-2.155-2.616-2.892
	C9.388,0.971,5.5,1.936,3.295,4.566C0.76,7.59,0.689,11.078,3.235,14.721c2.689,3.842,6.234,6.805,10,9.518
	c0.229,0.164,0.459,0.328,0.689,0.492c0.101,0.072,0.194,0.141,0.281,0.203l1.484,1.068l1.784-1.303
	c0.418-0.32,0.832-0.645,1.238-0.979c3.33-2.748,6.42-5.713,8.51-9.559C29.567,9.85,28.611,5.203,24.931,2.895z"/>
<path fill="none" stroke="#231F20" stroke-miterlimit="10" d="M55.001,2.895c-3.382-2.125-6.409-1.483-8.604,1.842
	c-0.42,0.637-0.786,1.309-1.26,2.102c-0.283-0.537-0.426-0.967-0.697-1.289c-0.835-1.001-1.583-2.155-2.616-2.892
	c-2.365-1.686-6.252-0.721-8.458,1.91c-2.535,3.023-2.605,6.512-0.059,10.154c2.689,3.842,6.234,6.805,9.999,9.518
	c0.229,0.164,0.46,0.328,0.689,0.492c0.102,0.072,0.194,0.141,0.282,0.203l1.484,1.068l1.786-1.303
	c0.416-0.32,0.833-0.645,1.237-0.979c3.328-2.748,6.42-5.713,8.509-9.559C59.638,9.85,58.682,5.203,55.001,2.895z"/>
<path fill="#5FBA46" d="M85.073,2.895c-3.383-2.125-6.412-1.483-8.603,1.842c-0.421,0.637-0.787,1.309-1.262,2.102
	c-0.282-0.537-0.427-0.967-0.698-1.289c-0.837-1.001-1.582-2.155-2.615-2.892c-2.363-1.686-6.254-0.721-8.458,1.91
	c-2.535,3.023-2.605,6.512-0.06,10.154c2.69,3.842,6.235,6.805,10.001,9.518c0.229,0.164,0.457,0.328,0.688,0.492
	c0.101,0.072,0.193,0.141,0.281,0.203l1.485,1.068l1.785-1.303c0.416-0.32,0.829-0.645,1.236-0.979
	c3.33-2.748,6.42-5.713,8.51-9.559C89.709,9.85,88.753,5.203,85.073,2.895z"/>
<g>
	<g>
		<path fill="#5FBA46" d="M31.609-29.3c-2.258-1.418-4.278-0.989-5.741,1.229c-0.28,0.424-0.525,0.872-0.841,1.402
			c-0.189-0.359-0.285-0.646-0.466-0.861c-0.558-0.667-1.055-1.438-1.746-1.929c-1.579-1.125-4.172-0.481-5.644,1.274
			c-1.692,2.018-1.739,4.346-0.04,6.775c1.794,2.564,4.16,4.54,6.673,6.351c0.153,0.11,0.307,0.22,0.46,0.329
			c0.067,0.048,0.129,0.094,0.188,0.136l0.991,0.713l1.19-0.87c0.279-0.213,0.555-0.429,0.826-0.653
			c2.222-1.832,4.284-3.812,5.678-6.377C34.703-24.659,34.064-27.759,31.609-29.3z"/>
		<path fill="#5FBA46" d="M51.674-29.3c-2.257-1.418-4.276-0.989-5.74,1.229c-0.281,0.424-0.525,0.872-0.841,1.402
			c-0.189-0.359-0.284-0.646-0.465-0.861c-0.558-0.667-1.056-1.438-1.746-1.929c-1.578-1.125-4.172-0.481-5.644,1.274
			c-1.691,2.018-1.738,4.346-0.04,6.775c1.794,2.564,4.16,4.54,6.672,6.351c0.153,0.11,0.307,0.22,0.46,0.329
			c0.068,0.048,0.129,0.094,0.188,0.136l0.99,0.713l1.191-0.87c0.277-0.213,0.556-0.429,0.825-0.653
			c2.221-1.832,4.284-3.812,5.678-6.377C54.768-24.659,54.13-27.759,51.674-29.3z"/>
		<path fill="#5FBA46" d="M71.739-29.3c-2.258-1.418-4.278-0.989-5.74,1.229c-0.281,0.424-0.525,0.872-0.842,1.402
			c-0.188-0.359-0.285-0.646-0.466-0.861c-0.559-0.667-1.056-1.438-1.745-1.929c-1.577-1.125-4.173-0.481-5.644,1.274
			c-1.691,2.018-1.738,4.346-0.04,6.775c1.795,2.564,4.16,4.54,6.673,6.351c0.153,0.11,0.306,0.22,0.46,0.329
			c0.066,0.048,0.129,0.094,0.188,0.136l0.991,0.713l1.19-0.87c0.278-0.213,0.554-0.429,0.825-0.653
			c2.222-1.832,4.284-3.812,5.679-6.377C74.832-24.659,74.194-27.759,71.739-29.3z"/>
	</g>
	<g>
		<path fill="#5FBA46" d="M1.413-17.295c-1.423,0.482-2.9,0.808-4.342,1.24c-0.477,0.144-0.958,0.365-0.83,1.038
			c0.104,0.541,0.538,0.881,1.21,0.821c0.577-0.051,1.155-0.159,1.714-0.311c2.558-0.697,4.901-1.883,7.202-3.177
			c2.619-1.472,4.772-3.416,6.368-5.952c-0.785,0.306-1.58,0.41-2.269,0.423C7.981-20.428,4.932-18.488,1.413-17.295z"/>
		<path fill="#5FBA46" d="M88.586-17.295c1.424,0.482,2.9,0.808,4.343,1.24c0.477,0.144,0.959,0.365,0.83,1.038
			c-0.104,0.541-0.538,0.881-1.211,0.821c-0.576-0.051-1.155-0.159-1.714-0.311c-2.559-0.697-4.902-1.883-7.202-3.177
			c-2.618-1.472-4.771-3.416-6.369-5.952c0.787,0.306,1.581,0.41,2.27,0.423C82.02-20.428,85.067-18.488,88.586-17.295z"/>
	</g>
</g>
<g>
	<line fill="none" stroke="#231F20" stroke-miterlimit="10" x1="40.104" y1="8.506" x2="49.896" y2="19.162"/>
	<line fill="none" stroke="#231F20" stroke-miterlimit="10" x1="49.896" y1="8.506" x2="40.104" y2="19.162"/>
</g>
<polyline fill="none" stroke="#D1D3D4" stroke-miterlimit="10" points="70.334,13.253 75.071,18.58 82.5,9.087 "/>
</svg>
