<?xml version="1.0" encoding="utf-8"?>
<!-- Generator: Adobe Illustrator 16.0.0, SVG Export Plug-In . SVG Version: 6.00 Build 0)  -->
<!DOCTYPE svg PUBLIC "-//W3C//DTD SVG 1.1//EN" "http://www.w3.org/Graphics/SVG/1.1/DTD/svg11.dtd">
<svg version="1.1" id="Layer_1" xmlns="http://www.w3.org/2000/svg" xmlns:xlink="http://www.w3.org/1999/xlink" x="0px" y="0px"
	 width="100px" height="100px" viewBox="0 0 100 100" enable-background="new 0 0 100 100" xml:space="preserve">
<g>
	<g>
		<defs>
			<path id="SVGID_1_" d="M55.713-66.119c0.492-0.609,0.944-1.131,1.354-1.686c3.587-4.857,7.253-9.654,12.547-12.821
				c5.732-3.431,12.705-0.094,13.701,6.506c0.39,2.583-0.744,4.526-2.726,6.032c-0.879,0.667-1.857,1.203-2.965,1.91
				c0.55,0.301,1.016,0.554,1.481,0.81c5.513,3.037,5.84,9.372,0.646,13.012c-2.8,1.964-5.894,2.286-8.913,0.815
				c-2.381-1.16-4.53-2.798-6.769-4.245c-0.414-0.267-0.762-0.636-1.351-0.761c0.666,0.676,1.424,1.284,1.983,2.038
				c1.642,2.222,3.614,4.319,4.721,6.793c2.655,5.944-2.759,12.802-9.225,11.946c-1.864-0.248-3.185-1.464-4.241-2.942
				c-0.578-0.808-1.065-1.683-1.69-2.684c-0.32,0.557-0.562,0.982-0.811,1.406c-1.373,2.332-2.932,4.516-6.002,4.439
				c-3.337-0.084-5.904-1.669-7.544-4.586c-1.614-2.875-1.415-5.838-0.089-8.747c2.131-4.678,5.727-8.159,9.532-11.452
				c0.688-0.595,1.411-1.151,2.139-1.697c1.566-1.169,1.569-1.351-0.215-2.698c-1.36,1.782-2.678,3.609-4.099,5.353
				c-2.79,3.419-5.744,6.684-9.567,9.007c-3.061,1.861-6.214,2.071-9.334,0.208c-2.902-1.732-4.464-4.321-4.492-7.756
				c-0.018-2.175,1.122-3.738,2.757-4.975c0.877-0.664,1.86-1.188,2.906-1.845c-0.843-0.506-1.613-0.945-2.359-1.42
				c-4.854-3.084-4.114-7.479-1.381-10.9c2.784-3.484,7.558-4.123,12.012-1.796c5.15,2.69,8.926,6.897,12.458,11.365
				c0.22,0.276,0.422,0.567,0.656,0.831c0.132,0.146,0.313,0.246,0.462,0.359c1.883-1.102,1.884-1.32,0.166-2.537
				c-4.641-3.29-9.048-6.85-12.341-11.56c-2.938-4.203-2.857-8.232,0.07-11.722c2.545-3.035,7.034-4.148,9.764-2.203
				c1.195,0.851,2.054,2.184,3.021,3.337c0.312,0.374,0.478,0.87,0.806,1.49c0.546-0.916,0.97-1.691,1.454-2.426
				c2.531-3.838,6.026-4.58,9.934-2.125c4.247,2.666,5.352,8.029,2.646,13.007c-2.414,4.439-5.98,7.863-9.824,11.035
				c-0.47,0.386-0.947,0.76-1.43,1.13C54.03-67.702,54.025-67.58,55.713-66.119z M55.877-64.665
				c-1.876,1.045-1.89,1.332-0.313,2.479c1.431,1.042,2.837,2.118,4.242,3.192c0.717,0.55,1.409,1.132,2.112,1.697
				c0.035-0.056,0.07-0.112,0.105-0.168C59.996-59.84,57.967-62.216,55.877-64.665z"/>
		</defs>
		<clipPath id="SVGID_2_">
			<use xlink:href="#SVGID_1_"  overflow="visible"/>
		</clipPath>
		
			<rect x="53.988" y="-64.666" clip-path="url(#SVGID_2_)" fill-rule="evenodd" clip-rule="evenodd" fill="#92C83E" width="0.02" height="7.371"/>
		
			<rect x="54.008" y="-64.666" clip-path="url(#SVGID_2_)" fill-rule="evenodd" clip-rule="evenodd" fill="#91C73E" width="0.293" height="7.371"/>
		
			<rect x="54.301" y="-64.666" clip-path="url(#SVGID_2_)" fill-rule="evenodd" clip-rule="evenodd" fill="#90C73E" width="0.297" height="7.371"/>
		
			<rect x="54.598" y="-64.666" clip-path="url(#SVGID_2_)" fill-rule="evenodd" clip-rule="evenodd" fill="#8FC63E" width="0.293" height="7.371"/>
		
			<rect x="54.891" y="-64.666" clip-path="url(#SVGID_2_)" fill-rule="evenodd" clip-rule="evenodd" fill="#8EC63F" width="0.297" height="7.371"/>
		
			<rect x="55.188" y="-64.666" clip-path="url(#SVGID_2_)" fill-rule="evenodd" clip-rule="evenodd" fill="#8DC63F" width="0.293" height="7.371"/>
		
			<rect x="55.48" y="-64.666" clip-path="url(#SVGID_2_)" fill-rule="evenodd" clip-rule="evenodd" fill="#8CC53F" width="0.297" height="7.371"/>
		
			<rect x="55.777" y="-64.666" clip-path="url(#SVGID_2_)" fill-rule="evenodd" clip-rule="evenodd" fill="#8BC53F" width="0.293" height="7.371"/>
		
			<rect x="56.07" y="-64.666" clip-path="url(#SVGID_2_)" fill-rule="evenodd" clip-rule="evenodd" fill="#8BC53F" width="0.141" height="7.371"/>
		
			<rect x="56.211" y="-64.666" clip-path="url(#SVGID_2_)" fill-rule="evenodd" clip-rule="evenodd" fill="#8BC43F" width="0.141" height="7.371"/>
		
			<rect x="56.352" y="-64.666" clip-path="url(#SVGID_2_)" fill-rule="evenodd" clip-rule="evenodd" fill="#8CC340" width="0.137" height="7.371"/>
		
			<rect x="56.488" y="-64.666" clip-path="url(#SVGID_2_)" fill-rule="evenodd" clip-rule="evenodd" fill="#8CC240" width="0.137" height="7.371"/>
		
			<rect x="56.625" y="-64.666" clip-path="url(#SVGID_2_)" fill-rule="evenodd" clip-rule="evenodd" fill="#8DC141" width="0.141" height="7.371"/>
		
			<rect x="56.766" y="-64.666" clip-path="url(#SVGID_2_)" fill-rule="evenodd" clip-rule="evenodd" fill="#8DC041" width="0.141" height="7.371"/>
		
			<rect x="56.906" y="-64.666" clip-path="url(#SVGID_2_)" fill-rule="evenodd" clip-rule="evenodd" fill="#8EBF41" width="0.137" height="7.371"/>
		
			<rect x="57.043" y="-64.666" clip-path="url(#SVGID_2_)" fill-rule="evenodd" clip-rule="evenodd" fill="#8EBE42" width="0.141" height="7.371"/>
		
			<rect x="57.184" y="-64.666" clip-path="url(#SVGID_2_)" fill-rule="evenodd" clip-rule="evenodd" fill="#8FBD42" width="0.137" height="7.371"/>
		
			<rect x="57.32" y="-64.666" clip-path="url(#SVGID_2_)" fill-rule="evenodd" clip-rule="evenodd" fill="#8FBC42" width="0.141" height="7.371"/>
		
			<rect x="57.461" y="-64.666" clip-path="url(#SVGID_2_)" fill-rule="evenodd" clip-rule="evenodd" fill="#90BB43" width="0.141" height="7.371"/>
		
			<rect x="57.602" y="-64.666" clip-path="url(#SVGID_2_)" fill-rule="evenodd" clip-rule="evenodd" fill="#90BA43" width="0.137" height="7.371"/>
		
			<rect x="57.738" y="-64.666" clip-path="url(#SVGID_2_)" fill-rule="evenodd" clip-rule="evenodd" fill="#91B944" width="0.141" height="7.371"/>
		
			<rect x="57.879" y="-64.666" clip-path="url(#SVGID_2_)" fill-rule="evenodd" clip-rule="evenodd" fill="#91B844" width="0.137" height="7.371"/>
		
			<rect x="58.016" y="-64.666" clip-path="url(#SVGID_2_)" fill-rule="evenodd" clip-rule="evenodd" fill="#92B744" width="0.141" height="7.371"/>
		
			<rect x="58.156" y="-64.666" clip-path="url(#SVGID_2_)" fill-rule="evenodd" clip-rule="evenodd" fill="#92B645" width="0.141" height="7.371"/>
		
			<rect x="58.297" y="-64.666" clip-path="url(#SVGID_2_)" fill-rule="evenodd" clip-rule="evenodd" fill="#93B545" width="0.137" height="7.371"/>
		
			<rect x="58.434" y="-64.666" clip-path="url(#SVGID_2_)" fill-rule="evenodd" clip-rule="evenodd" fill="#93B446" width="0.141" height="7.371"/>
		
			<rect x="58.574" y="-64.666" clip-path="url(#SVGID_2_)" fill-rule="evenodd" clip-rule="evenodd" fill="#94B346" width="0.137" height="7.371"/>
		
			<rect x="58.711" y="-64.666" clip-path="url(#SVGID_2_)" fill-rule="evenodd" clip-rule="evenodd" fill="#94B246" width="0.141" height="7.371"/>
		
			<rect x="58.852" y="-64.666" clip-path="url(#SVGID_2_)" fill-rule="evenodd" clip-rule="evenodd" fill="#95B147" width="0.141" height="7.371"/>
		
			<rect x="58.992" y="-64.666" clip-path="url(#SVGID_2_)" fill-rule="evenodd" clip-rule="evenodd" fill="#95B047" width="0.137" height="7.371"/>
		
			<rect x="59.129" y="-64.666" clip-path="url(#SVGID_2_)" fill-rule="evenodd" clip-rule="evenodd" fill="#96AF48" width="0.137" height="7.371"/>
		
			<rect x="59.266" y="-64.666" clip-path="url(#SVGID_2_)" fill-rule="evenodd" clip-rule="evenodd" fill="#96AE48" width="0.141" height="7.371"/>
		
			<rect x="59.406" y="-64.666" clip-path="url(#SVGID_2_)" fill-rule="evenodd" clip-rule="evenodd" fill="#97AD48" width="0.141" height="7.371"/>
		
			<rect x="59.547" y="-64.666" clip-path="url(#SVGID_2_)" fill-rule="evenodd" clip-rule="evenodd" fill="#97AC49" width="0.137" height="7.371"/>
		
			<rect x="59.684" y="-64.666" clip-path="url(#SVGID_2_)" fill-rule="evenodd" clip-rule="evenodd" fill="#98AB49" width="0.141" height="7.371"/>
		
			<rect x="59.824" y="-64.666" clip-path="url(#SVGID_2_)" fill-rule="evenodd" clip-rule="evenodd" fill="#98AA49" width="0.137" height="7.371"/>
		
			<rect x="59.961" y="-64.666" clip-path="url(#SVGID_2_)" fill-rule="evenodd" clip-rule="evenodd" fill="#99A94A" width="0.141" height="7.371"/>
		
			<rect x="60.102" y="-64.666" clip-path="url(#SVGID_2_)" fill-rule="evenodd" clip-rule="evenodd" fill="#99A84A" width="0.141" height="7.371"/>
		
			<rect x="60.242" y="-64.666" clip-path="url(#SVGID_2_)" fill-rule="evenodd" clip-rule="evenodd" fill="#9AA74B" width="0.137" height="7.371"/>
		
			<rect x="60.379" y="-64.666" clip-path="url(#SVGID_2_)" fill-rule="evenodd" clip-rule="evenodd" fill="#9AA64B" width="0.141" height="7.371"/>
		
			<rect x="60.52" y="-64.666" clip-path="url(#SVGID_2_)" fill-rule="evenodd" clip-rule="evenodd" fill="#9BA54B" width="0.137" height="7.371"/>
		
			<rect x="60.656" y="-64.666" clip-path="url(#SVGID_2_)" fill-rule="evenodd" clip-rule="evenodd" fill="#9BA44C" width="0.141" height="7.371"/>
		
			<rect x="60.797" y="-64.666" clip-path="url(#SVGID_2_)" fill-rule="evenodd" clip-rule="evenodd" fill="#9CA34C" width="0.141" height="7.371"/>
		
			<rect x="60.938" y="-64.666" clip-path="url(#SVGID_2_)" fill-rule="evenodd" clip-rule="evenodd" fill="#9CA24D" width="0.137" height="7.371"/>
		
			<rect x="61.074" y="-64.666" clip-path="url(#SVGID_2_)" fill-rule="evenodd" clip-rule="evenodd" fill="#9DA14D" width="0.141" height="7.371"/>
		
			<rect x="61.215" y="-64.666" clip-path="url(#SVGID_2_)" fill-rule="evenodd" clip-rule="evenodd" fill="#9DA04D" width="0.137" height="7.371"/>
		
			<rect x="61.352" y="-64.666" clip-path="url(#SVGID_2_)" fill-rule="evenodd" clip-rule="evenodd" fill="#9E9F4E" width="0.141" height="7.371"/>
		
			<rect x="61.492" y="-64.666" clip-path="url(#SVGID_2_)" fill-rule="evenodd" clip-rule="evenodd" fill="#9E9E4E" width="0.141" height="7.371"/>
		
			<rect x="61.633" y="-64.666" clip-path="url(#SVGID_2_)" fill-rule="evenodd" clip-rule="evenodd" fill="#9F9D4F" width="0.137" height="7.371"/>
		
			<rect x="61.77" y="-64.666" clip-path="url(#SVGID_2_)" fill-rule="evenodd" clip-rule="evenodd" fill="#9F9C4F" width="0.141" height="7.371"/>
		
			<rect x="61.91" y="-64.666" clip-path="url(#SVGID_2_)" fill-rule="evenodd" clip-rule="evenodd" fill="#A09B4F" width="0.113" height="7.371"/>
		
			<rect x="22.234" y="-96.502" clip-path="url(#SVGID_2_)" fill-rule="evenodd" clip-rule="evenodd" fill="#F9EC31" width="1.383" height="61.588"/>
		
			<rect x="23.617" y="-96.502" clip-path="url(#SVGID_2_)" fill-rule="evenodd" clip-rule="evenodd" fill="#F9EC31" width="0.297" height="61.588"/>
		
			<rect x="23.914" y="-96.502" clip-path="url(#SVGID_2_)" fill-rule="evenodd" clip-rule="evenodd" fill="#F8EC31" width="0.293" height="61.588"/>
		
			<rect x="24.207" y="-96.502" clip-path="url(#SVGID_2_)" fill-rule="evenodd" clip-rule="evenodd" fill="#F7EB31" width="0.297" height="61.588"/>
		
			<rect x="24.504" y="-96.502" clip-path="url(#SVGID_2_)" fill-rule="evenodd" clip-rule="evenodd" fill="#F6EB31" width="0.293" height="61.588"/>
		
			<rect x="24.797" y="-96.502" clip-path="url(#SVGID_2_)" fill-rule="evenodd" clip-rule="evenodd" fill="#F5EB32" width="0.297" height="61.588"/>
		
			<rect x="25.094" y="-96.502" clip-path="url(#SVGID_2_)" fill-rule="evenodd" clip-rule="evenodd" fill="#F4EA32" width="0.293" height="61.588"/>
		
			<rect x="25.387" y="-96.502" clip-path="url(#SVGID_2_)" fill-rule="evenodd" clip-rule="evenodd" fill="#F3EA32" width="0.297" height="61.588"/>
		
			<rect x="25.684" y="-96.502" clip-path="url(#SVGID_2_)" fill-rule="evenodd" clip-rule="evenodd" fill="#F2E932" width="0.293" height="61.588"/>
		
			<rect x="25.977" y="-96.502" clip-path="url(#SVGID_2_)" fill-rule="evenodd" clip-rule="evenodd" fill="#F1E932" width="0.297" height="61.588"/>
		
			<rect x="26.273" y="-96.502" clip-path="url(#SVGID_2_)" fill-rule="evenodd" clip-rule="evenodd" fill="#F0E932" width="0.297" height="61.588"/>
		
			<rect x="26.57" y="-96.502" clip-path="url(#SVGID_2_)" fill-rule="evenodd" clip-rule="evenodd" fill="#EFE832" width="0.293" height="61.588"/>
		
			<rect x="26.863" y="-96.502" clip-path="url(#SVGID_2_)" fill-rule="evenodd" clip-rule="evenodd" fill="#EEE832" width="0.297" height="61.588"/>
		
			<rect x="27.16" y="-96.502" clip-path="url(#SVGID_2_)" fill-rule="evenodd" clip-rule="evenodd" fill="#EDE833" width="0.293" height="61.588"/>
		
			<rect x="27.453" y="-96.502" clip-path="url(#SVGID_2_)" fill-rule="evenodd" clip-rule="evenodd" fill="#ECE733" width="0.297" height="61.588"/>
		
			<rect x="27.75" y="-96.502" clip-path="url(#SVGID_2_)" fill-rule="evenodd" clip-rule="evenodd" fill="#EBE733" width="0.293" height="61.588"/>
		
			<rect x="28.043" y="-96.502" clip-path="url(#SVGID_2_)" fill-rule="evenodd" clip-rule="evenodd" fill="#EAE733" width="0.297" height="61.588"/>
		
			<rect x="28.34" y="-96.502" clip-path="url(#SVGID_2_)" fill-rule="evenodd" clip-rule="evenodd" fill="#E9E633" width="0.293" height="61.588"/>
		
			<rect x="28.633" y="-96.502" clip-path="url(#SVGID_2_)" fill-rule="evenodd" clip-rule="evenodd" fill="#E8E633" width="0.297" height="61.588"/>
		
			<rect x="28.93" y="-96.502" clip-path="url(#SVGID_2_)" fill-rule="evenodd" clip-rule="evenodd" fill="#E7E633" width="0.293" height="61.588"/>
		
			<rect x="29.223" y="-96.502" clip-path="url(#SVGID_2_)" fill-rule="evenodd" clip-rule="evenodd" fill="#E6E533" width="0.297" height="61.588"/>
		
			<rect x="29.52" y="-96.502" clip-path="url(#SVGID_2_)" fill-rule="evenodd" clip-rule="evenodd" fill="#E5E534" width="0.293" height="61.588"/>
		
			<rect x="29.812" y="-96.502" clip-path="url(#SVGID_2_)" fill-rule="evenodd" clip-rule="evenodd" fill="#E4E434" width="0.297" height="61.588"/>
		
			<rect x="30.109" y="-96.502" clip-path="url(#SVGID_2_)" fill-rule="evenodd" clip-rule="evenodd" fill="#E3E434" width="0.293" height="61.588"/>
		
			<rect x="30.402" y="-96.502" clip-path="url(#SVGID_2_)" fill-rule="evenodd" clip-rule="evenodd" fill="#E2E434" width="0.297" height="61.588"/>
		
			<rect x="30.699" y="-96.502" clip-path="url(#SVGID_2_)" fill-rule="evenodd" clip-rule="evenodd" fill="#E1E334" width="0.293" height="61.588"/>
		
			<rect x="30.992" y="-96.502" clip-path="url(#SVGID_2_)" fill-rule="evenodd" clip-rule="evenodd" fill="#E0E334" width="0.297" height="61.588"/>
		
			<rect x="31.289" y="-96.502" clip-path="url(#SVGID_2_)" fill-rule="evenodd" clip-rule="evenodd" fill="#DFE334" width="0.297" height="61.588"/>
		
			<rect x="31.586" y="-96.502" clip-path="url(#SVGID_2_)" fill-rule="evenodd" clip-rule="evenodd" fill="#DEE234" width="0.293" height="61.588"/>
		
			<rect x="31.879" y="-96.502" clip-path="url(#SVGID_2_)" fill-rule="evenodd" clip-rule="evenodd" fill="#DDE235" width="0.293" height="61.588"/>
		
			<rect x="32.172" y="-96.502" clip-path="url(#SVGID_2_)" fill-rule="evenodd" clip-rule="evenodd" fill="#DCE235" width="0.297" height="61.588"/>
		
			<rect x="32.469" y="-96.502" clip-path="url(#SVGID_2_)" fill-rule="evenodd" clip-rule="evenodd" fill="#DBE135" width="0.297" height="61.588"/>
		
			<rect x="32.766" y="-96.502" clip-path="url(#SVGID_2_)" fill-rule="evenodd" clip-rule="evenodd" fill="#DAE135" width="0.293" height="61.588"/>
		
			<rect x="33.059" y="-96.502" clip-path="url(#SVGID_2_)" fill-rule="evenodd" clip-rule="evenodd" fill="#D9E135" width="0.297" height="61.588"/>
		
			<rect x="33.355" y="-96.502" clip-path="url(#SVGID_2_)" fill-rule="evenodd" clip-rule="evenodd" fill="#D8E035" width="0.293" height="61.588"/>
		
			<rect x="33.648" y="-96.502" clip-path="url(#SVGID_2_)" fill-rule="evenodd" clip-rule="evenodd" fill="#D7E035" width="0.297" height="61.588"/>
		
			<rect x="33.945" y="-96.502" clip-path="url(#SVGID_2_)" fill-rule="evenodd" clip-rule="evenodd" fill="#D6DF35" width="0.293" height="61.588"/>
		
			<rect x="34.238" y="-96.502" clip-path="url(#SVGID_2_)" fill-rule="evenodd" clip-rule="evenodd" fill="#D5DF36" width="0.297" height="61.588"/>
		
			<rect x="34.535" y="-96.502" clip-path="url(#SVGID_2_)" fill-rule="evenodd" clip-rule="evenodd" fill="#D4DF36" width="0.293" height="61.588"/>
		
			<rect x="34.828" y="-96.502" clip-path="url(#SVGID_2_)" fill-rule="evenodd" clip-rule="evenodd" fill="#D3DE36" width="0.297" height="61.588"/>
		
			<rect x="35.125" y="-96.502" clip-path="url(#SVGID_2_)" fill-rule="evenodd" clip-rule="evenodd" fill="#D2DE36" width="0.293" height="61.588"/>
		
			<rect x="35.418" y="-96.502" clip-path="url(#SVGID_2_)" fill-rule="evenodd" clip-rule="evenodd" fill="#D1DE36" width="0.297" height="61.588"/>
		
			<rect x="35.715" y="-96.502" clip-path="url(#SVGID_2_)" fill-rule="evenodd" clip-rule="evenodd" fill="#D0DD36" width="0.293" height="61.588"/>
		
			<rect x="36.008" y="-96.502" clip-path="url(#SVGID_2_)" fill-rule="evenodd" clip-rule="evenodd" fill="#CFDD36" width="0.297" height="61.588"/>
		
			<rect x="36.305" y="-96.502" clip-path="url(#SVGID_2_)" fill-rule="evenodd" clip-rule="evenodd" fill="#CEDD37" width="0.297" height="61.588"/>
		
			<rect x="36.602" y="-96.502" clip-path="url(#SVGID_2_)" fill-rule="evenodd" clip-rule="evenodd" fill="#CDDC37" width="0.293" height="61.588"/>
		
			<rect x="36.895" y="-96.502" clip-path="url(#SVGID_2_)" fill-rule="evenodd" clip-rule="evenodd" fill="#CCDC37" width="0.293" height="61.588"/>
		
			<rect x="37.188" y="-96.502" clip-path="url(#SVGID_2_)" fill-rule="evenodd" clip-rule="evenodd" fill="#CBDC37" width="0.297" height="61.588"/>
		
			<rect x="37.484" y="-96.502" clip-path="url(#SVGID_2_)" fill-rule="evenodd" clip-rule="evenodd" fill="#CADB37" width="0.297" height="61.588"/>
		
			<rect x="37.781" y="-96.502" clip-path="url(#SVGID_2_)" fill-rule="evenodd" clip-rule="evenodd" fill="#C9DB37" width="0.293" height="61.588"/>
		
			<rect x="38.074" y="-96.502" clip-path="url(#SVGID_2_)" fill-rule="evenodd" clip-rule="evenodd" fill="#C8DA37" width="0.297" height="61.588"/>
		
			<rect x="38.371" y="-96.502" clip-path="url(#SVGID_2_)" fill-rule="evenodd" clip-rule="evenodd" fill="#C7DA37" width="0.293" height="61.588"/>
		
			<rect x="38.664" y="-96.502" clip-path="url(#SVGID_2_)" fill-rule="evenodd" clip-rule="evenodd" fill="#C6DA38" width="0.297" height="61.588"/>
		
			<rect x="38.961" y="-96.502" clip-path="url(#SVGID_2_)" fill-rule="evenodd" clip-rule="evenodd" fill="#C5D938" width="0.293" height="61.588"/>
		
			<rect x="39.254" y="-96.502" clip-path="url(#SVGID_2_)" fill-rule="evenodd" clip-rule="evenodd" fill="#C4D938" width="0.297" height="61.588"/>
		
			<rect x="39.551" y="-96.502" clip-path="url(#SVGID_2_)" fill-rule="evenodd" clip-rule="evenodd" fill="#C3D938" width="0.293" height="61.588"/>
		
			<rect x="39.844" y="-96.502" clip-path="url(#SVGID_2_)" fill-rule="evenodd" clip-rule="evenodd" fill="#C1D838" width="0.297" height="61.588"/>
		
			<rect x="40.141" y="-96.502" clip-path="url(#SVGID_2_)" fill-rule="evenodd" clip-rule="evenodd" fill="#C0D838" width="0.293" height="61.588"/>
		
			<rect x="40.434" y="-96.502" clip-path="url(#SVGID_2_)" fill-rule="evenodd" clip-rule="evenodd" fill="#BFD838" width="0.297" height="61.588"/>
		
			<rect x="40.73" y="-96.502" clip-path="url(#SVGID_2_)" fill-rule="evenodd" clip-rule="evenodd" fill="#BED738" width="0.293" height="61.588"/>
		
			<rect x="41.023" y="-96.502" clip-path="url(#SVGID_2_)" fill-rule="evenodd" clip-rule="evenodd" fill="#BDD739" width="0.297" height="61.588"/>
		
			<rect x="41.32" y="-96.502" clip-path="url(#SVGID_2_)" fill-rule="evenodd" clip-rule="evenodd" fill="#BCD739" width="0.297" height="61.588"/>
		
			<rect x="41.617" y="-96.502" clip-path="url(#SVGID_2_)" fill-rule="evenodd" clip-rule="evenodd" fill="#BBD639" width="0.293" height="61.588"/>
		
			<rect x="41.91" y="-96.502" clip-path="url(#SVGID_2_)" fill-rule="evenodd" clip-rule="evenodd" fill="#BAD639" width="0.293" height="61.588"/>
		
			<rect x="42.203" y="-96.502" clip-path="url(#SVGID_2_)" fill-rule="evenodd" clip-rule="evenodd" fill="#B9D539" width="0.297" height="61.588"/>
		
			<rect x="42.5" y="-96.502" clip-path="url(#SVGID_2_)" fill-rule="evenodd" clip-rule="evenodd" fill="#B8D539" width="0.297" height="61.588"/>
		
			<rect x="42.797" y="-96.502" clip-path="url(#SVGID_2_)" fill-rule="evenodd" clip-rule="evenodd" fill="#B7D539" width="0.293" height="61.588"/>
		
			<rect x="43.09" y="-96.502" clip-path="url(#SVGID_2_)" fill-rule="evenodd" clip-rule="evenodd" fill="#B6D439" width="0.297" height="61.588"/>
		
			<rect x="43.387" y="-96.502" clip-path="url(#SVGID_2_)" fill-rule="evenodd" clip-rule="evenodd" fill="#B5D43A" width="0.293" height="61.588"/>
		
			<rect x="43.68" y="-96.502" clip-path="url(#SVGID_2_)" fill-rule="evenodd" clip-rule="evenodd" fill="#B4D43A" width="0.297" height="61.588"/>
		
			<rect x="43.977" y="-96.502" clip-path="url(#SVGID_2_)" fill-rule="evenodd" clip-rule="evenodd" fill="#B3D33A" width="0.293" height="61.588"/>
		
			<rect x="44.27" y="-96.502" clip-path="url(#SVGID_2_)" fill-rule="evenodd" clip-rule="evenodd" fill="#B2D33A" width="0.297" height="61.588"/>
		
			<rect x="44.566" y="-96.502" clip-path="url(#SVGID_2_)" fill-rule="evenodd" clip-rule="evenodd" fill="#B1D33A" width="0.293" height="61.588"/>
		
			<rect x="44.859" y="-96.502" clip-path="url(#SVGID_2_)" fill-rule="evenodd" clip-rule="evenodd" fill="#B0D23A" width="0.297" height="61.588"/>
		
			<rect x="45.156" y="-96.502" clip-path="url(#SVGID_2_)" fill-rule="evenodd" clip-rule="evenodd" fill="#AFD23A" width="0.293" height="61.588"/>
		
			<rect x="45.449" y="-96.502" clip-path="url(#SVGID_2_)" fill-rule="evenodd" clip-rule="evenodd" fill="#AED23B" width="0.297" height="61.588"/>
		
			<rect x="45.746" y="-96.502" clip-path="url(#SVGID_2_)" fill-rule="evenodd" clip-rule="evenodd" fill="#ADD13B" width="0.293" height="61.588"/>
		
			<rect x="46.039" y="-96.502" clip-path="url(#SVGID_2_)" fill-rule="evenodd" clip-rule="evenodd" fill="#ACD13B" width="0.297" height="61.588"/>
		
			<rect x="46.336" y="-96.502" clip-path="url(#SVGID_2_)" fill-rule="evenodd" clip-rule="evenodd" fill="#ABD03B" width="0.293" height="61.588"/>
		
			<rect x="46.629" y="-96.502" clip-path="url(#SVGID_2_)" fill-rule="evenodd" clip-rule="evenodd" fill="#AAD03B" width="0.297" height="61.588"/>
		
			<rect x="46.926" y="-96.502" clip-path="url(#SVGID_2_)" fill-rule="evenodd" clip-rule="evenodd" fill="#A9D03B" width="0.293" height="61.588"/>
		
			<rect x="47.219" y="-96.502" clip-path="url(#SVGID_2_)" fill-rule="evenodd" clip-rule="evenodd" fill="#A8CF3B" width="0.297" height="61.588"/>
		
			<rect x="47.516" y="-96.502" clip-path="url(#SVGID_2_)" fill-rule="evenodd" clip-rule="evenodd" fill="#A7CF3B" width="0.297" height="61.588"/>
		
			<rect x="47.812" y="-96.502" clip-path="url(#SVGID_2_)" fill-rule="evenodd" clip-rule="evenodd" fill="#A6CF3C" width="0.293" height="61.588"/>
		
			<rect x="48.105" y="-96.502" clip-path="url(#SVGID_2_)" fill-rule="evenodd" clip-rule="evenodd" fill="#A5CE3C" width="0.297" height="61.588"/>
		
			<rect x="48.402" y="-96.502" clip-path="url(#SVGID_2_)" fill-rule="evenodd" clip-rule="evenodd" fill="#A4CE3C" width="0.293" height="61.588"/>
		
			<rect x="48.695" y="-96.502" clip-path="url(#SVGID_2_)" fill-rule="evenodd" clip-rule="evenodd" fill="#A3CE3C" width="0.297" height="61.588"/>
		
			<rect x="48.992" y="-96.502" clip-path="url(#SVGID_2_)" fill-rule="evenodd" clip-rule="evenodd" fill="#A2CD3C" width="0.293" height="61.588"/>
		
			<rect x="49.285" y="-96.502" clip-path="url(#SVGID_2_)" fill-rule="evenodd" clip-rule="evenodd" fill="#A1CD3C" width="0.297" height="61.588"/>
		
			<rect x="49.582" y="-96.502" clip-path="url(#SVGID_2_)" fill-rule="evenodd" clip-rule="evenodd" fill="#A0CD3C" width="0.293" height="61.588"/>
		
			<rect x="49.875" y="-96.502" clip-path="url(#SVGID_2_)" fill-rule="evenodd" clip-rule="evenodd" fill="#9FCC3C" width="0.297" height="61.588"/>
		
			<rect x="50.172" y="-96.502" clip-path="url(#SVGID_2_)" fill-rule="evenodd" clip-rule="evenodd" fill="#9ECC3D" width="0.293" height="61.588"/>
		
			<rect x="50.465" y="-96.502" clip-path="url(#SVGID_2_)" fill-rule="evenodd" clip-rule="evenodd" fill="#9DCB3D" width="0.297" height="61.588"/>
		
			<rect x="50.762" y="-96.502" clip-path="url(#SVGID_2_)" fill-rule="evenodd" clip-rule="evenodd" fill="#9CCB3D" width="0.293" height="61.588"/>
		
			<rect x="51.055" y="-96.502" clip-path="url(#SVGID_2_)" fill-rule="evenodd" clip-rule="evenodd" fill="#9BCB3D" width="0.297" height="61.588"/>
		
			<rect x="51.352" y="-96.502" clip-path="url(#SVGID_2_)" fill-rule="evenodd" clip-rule="evenodd" fill="#9ACA3D" width="0.297" height="61.588"/>
		
			<rect x="51.648" y="-96.502" clip-path="url(#SVGID_2_)" fill-rule="evenodd" clip-rule="evenodd" fill="#99CA3D" width="0.293" height="61.588"/>
		
			<rect x="51.941" y="-96.502" clip-path="url(#SVGID_2_)" fill-rule="evenodd" clip-rule="evenodd" fill="#98CA3D" width="0.293" height="61.588"/>
		
			<rect x="52.234" y="-96.502" clip-path="url(#SVGID_2_)" fill-rule="evenodd" clip-rule="evenodd" fill="#97C93D" width="0.297" height="61.588"/>
		
			<rect x="52.531" y="-96.502" clip-path="url(#SVGID_2_)" fill-rule="evenodd" clip-rule="evenodd" fill="#96C93E" width="0.297" height="61.588"/>
		
			<rect x="52.828" y="-96.502" clip-path="url(#SVGID_2_)" fill-rule="evenodd" clip-rule="evenodd" fill="#95C93E" width="0.293" height="61.588"/>
		
			<rect x="53.121" y="-96.502" clip-path="url(#SVGID_2_)" fill-rule="evenodd" clip-rule="evenodd" fill="#94C83E" width="0.293" height="61.588"/>
		
			<rect x="53.414" y="-96.502" clip-path="url(#SVGID_2_)" fill-rule="evenodd" clip-rule="evenodd" fill="#93C83E" width="0.297" height="61.588"/>
		
			<rect x="53.711" y="-96.502" clip-path="url(#SVGID_2_)" fill-rule="evenodd" clip-rule="evenodd" fill="#92C83E" width="0.297" height="61.588"/>
		
			<rect x="54.008" y="-96.502" clip-path="url(#SVGID_2_)" fill-rule="evenodd" clip-rule="evenodd" fill="#91C73E" width="0.293" height="61.588"/>
		
			<rect x="54.301" y="-96.502" clip-path="url(#SVGID_2_)" fill-rule="evenodd" clip-rule="evenodd" fill="#90C73E" width="0.297" height="61.588"/>
		
			<rect x="54.598" y="-96.502" clip-path="url(#SVGID_2_)" fill-rule="evenodd" clip-rule="evenodd" fill="#8FC63E" width="0.293" height="61.588"/>
		
			<rect x="54.891" y="-96.502" clip-path="url(#SVGID_2_)" fill-rule="evenodd" clip-rule="evenodd" fill="#8EC63F" width="0.297" height="61.588"/>
		
			<rect x="55.188" y="-96.502" clip-path="url(#SVGID_2_)" fill-rule="evenodd" clip-rule="evenodd" fill="#8DC63F" width="0.293" height="61.588"/>
		
			<rect x="55.48" y="-96.502" clip-path="url(#SVGID_2_)" fill-rule="evenodd" clip-rule="evenodd" fill="#8CC53F" width="0.297" height="61.588"/>
		
			<rect x="55.777" y="-96.502" clip-path="url(#SVGID_2_)" fill-rule="evenodd" clip-rule="evenodd" fill="#8BC53F" width="0.293" height="61.588"/>
		
			<rect x="56.07" y="-96.502" clip-path="url(#SVGID_2_)" fill-rule="evenodd" clip-rule="evenodd" fill="#8BC53F" width="0.141" height="61.588"/>
		
			<rect x="56.211" y="-96.502" clip-path="url(#SVGID_2_)" fill-rule="evenodd" clip-rule="evenodd" fill="#8BC43F" width="0.141" height="61.588"/>
		
			<rect x="56.352" y="-96.502" clip-path="url(#SVGID_2_)" fill-rule="evenodd" clip-rule="evenodd" fill="#8CC340" width="0.137" height="61.588"/>
		
			<rect x="56.488" y="-96.502" clip-path="url(#SVGID_2_)" fill-rule="evenodd" clip-rule="evenodd" fill="#8CC240" width="0.137" height="61.588"/>
		
			<rect x="56.625" y="-96.502" clip-path="url(#SVGID_2_)" fill-rule="evenodd" clip-rule="evenodd" fill="#8DC141" width="0.141" height="61.588"/>
		
			<rect x="56.766" y="-96.502" clip-path="url(#SVGID_2_)" fill-rule="evenodd" clip-rule="evenodd" fill="#8DC041" width="0.141" height="61.588"/>
		
			<rect x="56.906" y="-96.502" clip-path="url(#SVGID_2_)" fill-rule="evenodd" clip-rule="evenodd" fill="#8EBF41" width="0.137" height="61.588"/>
		
			<rect x="57.043" y="-96.502" clip-path="url(#SVGID_2_)" fill-rule="evenodd" clip-rule="evenodd" fill="#8EBE42" width="0.141" height="61.588"/>
		
			<rect x="57.184" y="-96.502" clip-path="url(#SVGID_2_)" fill-rule="evenodd" clip-rule="evenodd" fill="#8FBD42" width="0.137" height="61.588"/>
		
			<rect x="57.32" y="-96.502" clip-path="url(#SVGID_2_)" fill-rule="evenodd" clip-rule="evenodd" fill="#8FBC42" width="0.141" height="61.588"/>
		
			<rect x="57.461" y="-96.502" clip-path="url(#SVGID_2_)" fill-rule="evenodd" clip-rule="evenodd" fill="#90BB43" width="0.141" height="61.588"/>
		
			<rect x="57.602" y="-96.502" clip-path="url(#SVGID_2_)" fill-rule="evenodd" clip-rule="evenodd" fill="#90BA43" width="0.137" height="61.588"/>
		
			<rect x="57.738" y="-96.502" clip-path="url(#SVGID_2_)" fill-rule="evenodd" clip-rule="evenodd" fill="#91B944" width="0.141" height="61.588"/>
		
			<rect x="57.879" y="-96.502" clip-path="url(#SVGID_2_)" fill-rule="evenodd" clip-rule="evenodd" fill="#91B844" width="0.137" height="61.588"/>
		
			<rect x="58.016" y="-96.502" clip-path="url(#SVGID_2_)" fill-rule="evenodd" clip-rule="evenodd" fill="#92B744" width="0.141" height="61.588"/>
		
			<rect x="58.156" y="-96.502" clip-path="url(#SVGID_2_)" fill-rule="evenodd" clip-rule="evenodd" fill="#92B645" width="0.141" height="61.588"/>
		
			<rect x="58.297" y="-96.502" clip-path="url(#SVGID_2_)" fill-rule="evenodd" clip-rule="evenodd" fill="#93B545" width="0.137" height="61.588"/>
		
			<rect x="58.434" y="-96.502" clip-path="url(#SVGID_2_)" fill-rule="evenodd" clip-rule="evenodd" fill="#93B446" width="0.141" height="61.588"/>
		
			<rect x="58.574" y="-96.502" clip-path="url(#SVGID_2_)" fill-rule="evenodd" clip-rule="evenodd" fill="#94B346" width="0.137" height="61.588"/>
		
			<rect x="58.711" y="-96.502" clip-path="url(#SVGID_2_)" fill-rule="evenodd" clip-rule="evenodd" fill="#94B246" width="0.141" height="61.588"/>
		
			<rect x="58.852" y="-96.502" clip-path="url(#SVGID_2_)" fill-rule="evenodd" clip-rule="evenodd" fill="#95B147" width="0.141" height="61.588"/>
		
			<rect x="58.992" y="-96.502" clip-path="url(#SVGID_2_)" fill-rule="evenodd" clip-rule="evenodd" fill="#95B047" width="0.137" height="61.588"/>
		
			<rect x="59.129" y="-96.502" clip-path="url(#SVGID_2_)" fill-rule="evenodd" clip-rule="evenodd" fill="#96AF48" width="0.137" height="61.588"/>
		
			<rect x="59.266" y="-96.502" clip-path="url(#SVGID_2_)" fill-rule="evenodd" clip-rule="evenodd" fill="#96AE48" width="0.141" height="61.588"/>
		
			<rect x="59.406" y="-96.502" clip-path="url(#SVGID_2_)" fill-rule="evenodd" clip-rule="evenodd" fill="#97AD48" width="0.141" height="61.588"/>
		
			<rect x="59.547" y="-96.502" clip-path="url(#SVGID_2_)" fill-rule="evenodd" clip-rule="evenodd" fill="#97AC49" width="0.137" height="61.588"/>
		
			<rect x="59.684" y="-96.502" clip-path="url(#SVGID_2_)" fill-rule="evenodd" clip-rule="evenodd" fill="#98AB49" width="0.141" height="61.588"/>
		
			<rect x="59.824" y="-96.502" clip-path="url(#SVGID_2_)" fill-rule="evenodd" clip-rule="evenodd" fill="#98AA49" width="0.137" height="61.588"/>
		
			<rect x="59.961" y="-96.502" clip-path="url(#SVGID_2_)" fill-rule="evenodd" clip-rule="evenodd" fill="#99A94A" width="0.141" height="61.588"/>
		
			<rect x="60.102" y="-96.502" clip-path="url(#SVGID_2_)" fill-rule="evenodd" clip-rule="evenodd" fill="#99A84A" width="0.141" height="61.588"/>
		
			<rect x="60.242" y="-96.502" clip-path="url(#SVGID_2_)" fill-rule="evenodd" clip-rule="evenodd" fill="#9AA74B" width="0.137" height="61.588"/>
		
			<rect x="60.379" y="-96.502" clip-path="url(#SVGID_2_)" fill-rule="evenodd" clip-rule="evenodd" fill="#9AA64B" width="0.141" height="61.588"/>
		
			<rect x="60.52" y="-96.502" clip-path="url(#SVGID_2_)" fill-rule="evenodd" clip-rule="evenodd" fill="#9BA54B" width="0.137" height="61.588"/>
		
			<rect x="60.656" y="-96.502" clip-path="url(#SVGID_2_)" fill-rule="evenodd" clip-rule="evenodd" fill="#9BA44C" width="0.141" height="61.588"/>
		
			<rect x="60.797" y="-96.502" clip-path="url(#SVGID_2_)" fill-rule="evenodd" clip-rule="evenodd" fill="#9CA34C" width="0.141" height="61.588"/>
		
			<rect x="60.938" y="-96.502" clip-path="url(#SVGID_2_)" fill-rule="evenodd" clip-rule="evenodd" fill="#9CA24D" width="0.137" height="61.588"/>
		
			<rect x="61.074" y="-96.502" clip-path="url(#SVGID_2_)" fill-rule="evenodd" clip-rule="evenodd" fill="#9DA14D" width="0.141" height="61.588"/>
		
			<rect x="61.215" y="-96.502" clip-path="url(#SVGID_2_)" fill-rule="evenodd" clip-rule="evenodd" fill="#9DA04D" width="0.137" height="61.588"/>
		
			<rect x="61.352" y="-96.502" clip-path="url(#SVGID_2_)" fill-rule="evenodd" clip-rule="evenodd" fill="#9E9F4E" width="0.141" height="61.588"/>
		
			<rect x="61.492" y="-96.502" clip-path="url(#SVGID_2_)" fill-rule="evenodd" clip-rule="evenodd" fill="#9E9E4E" width="0.141" height="61.588"/>
		
			<rect x="61.633" y="-96.502" clip-path="url(#SVGID_2_)" fill-rule="evenodd" clip-rule="evenodd" fill="#9F9D4F" width="0.137" height="61.588"/>
		
			<rect x="61.77" y="-96.502" clip-path="url(#SVGID_2_)" fill-rule="evenodd" clip-rule="evenodd" fill="#9F9C4F" width="0.141" height="61.588"/>
		
			<rect x="61.91" y="-96.502" clip-path="url(#SVGID_2_)" fill-rule="evenodd" clip-rule="evenodd" fill="#A09B4F" width="0.137" height="61.588"/>
		
			<rect x="62.047" y="-96.502" clip-path="url(#SVGID_2_)" fill-rule="evenodd" clip-rule="evenodd" fill="#A09A50" width="0.141" height="61.588"/>
		
			<rect x="62.188" y="-96.502" clip-path="url(#SVGID_2_)" fill-rule="evenodd" clip-rule="evenodd" fill="#A19950" width="0.141" height="61.588"/>
		
			<rect x="62.328" y="-96.502" clip-path="url(#SVGID_2_)" fill-rule="evenodd" clip-rule="evenodd" fill="#A19850" width="0.137" height="61.588"/>
		
			<rect x="62.465" y="-96.502" clip-path="url(#SVGID_2_)" fill-rule="evenodd" clip-rule="evenodd" fill="#A29751" width="0.137" height="61.588"/>
		
			<rect x="62.602" y="-96.502" clip-path="url(#SVGID_2_)" fill-rule="evenodd" clip-rule="evenodd" fill="#A29651" width="0.141" height="61.588"/>
		
			<rect x="62.742" y="-96.502" clip-path="url(#SVGID_2_)" fill-rule="evenodd" clip-rule="evenodd" fill="#A39552" width="0.141" height="61.588"/>
		
			<rect x="62.883" y="-96.502" clip-path="url(#SVGID_2_)" fill-rule="evenodd" clip-rule="evenodd" fill="#A39452" width="0.137" height="61.588"/>
		
			<rect x="63.02" y="-96.502" clip-path="url(#SVGID_2_)" fill-rule="evenodd" clip-rule="evenodd" fill="#A39352" width="0.141" height="61.588"/>
		
			<rect x="63.16" y="-96.502" clip-path="url(#SVGID_2_)" fill-rule="evenodd" clip-rule="evenodd" fill="#A49253" width="0.137" height="61.588"/>
		
			<rect x="63.297" y="-96.502" clip-path="url(#SVGID_2_)" fill-rule="evenodd" clip-rule="evenodd" fill="#A49153" width="0.141" height="61.588"/>
		
			<rect x="63.438" y="-96.502" clip-path="url(#SVGID_2_)" fill-rule="evenodd" clip-rule="evenodd" fill="#A59054" width="0.141" height="61.588"/>
		
			<rect x="63.578" y="-96.502" clip-path="url(#SVGID_2_)" fill-rule="evenodd" clip-rule="evenodd" fill="#A58F54" width="0.137" height="61.588"/>
		
			<rect x="63.715" y="-96.502" clip-path="url(#SVGID_2_)" fill-rule="evenodd" clip-rule="evenodd" fill="#A68E54" width="0.141" height="61.588"/>
		
			<rect x="63.855" y="-96.502" clip-path="url(#SVGID_2_)" fill-rule="evenodd" clip-rule="evenodd" fill="#A68D55" width="0.137" height="61.588"/>
		
			<rect x="63.992" y="-96.502" clip-path="url(#SVGID_2_)" fill-rule="evenodd" clip-rule="evenodd" fill="#A78C55" width="0.141" height="61.588"/>
		
			<rect x="64.133" y="-96.502" clip-path="url(#SVGID_2_)" fill-rule="evenodd" clip-rule="evenodd" fill="#A78B55" width="0.141" height="61.588"/>
		
			<rect x="64.273" y="-96.502" clip-path="url(#SVGID_2_)" fill-rule="evenodd" clip-rule="evenodd" fill="#A88A56" width="0.137" height="61.588"/>
		
			<rect x="64.41" y="-96.502" clip-path="url(#SVGID_2_)" fill-rule="evenodd" clip-rule="evenodd" fill="#A88956" width="0.141" height="61.588"/>
		
			<rect x="64.551" y="-96.502" clip-path="url(#SVGID_2_)" fill-rule="evenodd" clip-rule="evenodd" fill="#A98857" width="0.137" height="61.588"/>
		
			<rect x="64.688" y="-96.502" clip-path="url(#SVGID_2_)" fill-rule="evenodd" clip-rule="evenodd" fill="#A98757" width="0.141" height="61.588"/>
		
			<rect x="64.828" y="-96.502" clip-path="url(#SVGID_2_)" fill-rule="evenodd" clip-rule="evenodd" fill="#AA8657" width="0.141" height="61.588"/>
		
			<rect x="64.969" y="-96.502" clip-path="url(#SVGID_2_)" fill-rule="evenodd" clip-rule="evenodd" fill="#AA8558" width="0.137" height="61.588"/>
		
			<rect x="65.105" y="-96.502" clip-path="url(#SVGID_2_)" fill-rule="evenodd" clip-rule="evenodd" fill="#AB8458" width="0.137" height="61.588"/>
		
			<rect x="65.242" y="-96.502" clip-path="url(#SVGID_2_)" fill-rule="evenodd" clip-rule="evenodd" fill="#AB8359" width="0.141" height="61.588"/>
		
			<rect x="65.383" y="-96.502" clip-path="url(#SVGID_2_)" fill-rule="evenodd" clip-rule="evenodd" fill="#AC8259" width="0.141" height="61.588"/>
		
			<rect x="65.523" y="-96.502" clip-path="url(#SVGID_2_)" fill-rule="evenodd" clip-rule="evenodd" fill="#AC8159" width="0.137" height="61.588"/>
		
			<rect x="65.66" y="-96.502" clip-path="url(#SVGID_2_)" fill-rule="evenodd" clip-rule="evenodd" fill="#AD805A" width="0.141" height="61.588"/>
		
			<rect x="65.801" y="-96.502" clip-path="url(#SVGID_2_)" fill-rule="evenodd" clip-rule="evenodd" fill="#AD7F5A" width="0.137" height="61.588"/>
		
			<rect x="65.938" y="-96.502" clip-path="url(#SVGID_2_)" fill-rule="evenodd" clip-rule="evenodd" fill="#AE7E5B" width="0.141" height="61.588"/>
		
			<rect x="66.078" y="-96.502" clip-path="url(#SVGID_2_)" fill-rule="evenodd" clip-rule="evenodd" fill="#AE7D5B" width="0.141" height="61.588"/>
		
			<rect x="66.219" y="-96.502" clip-path="url(#SVGID_2_)" fill-rule="evenodd" clip-rule="evenodd" fill="#AF7C5B" width="0.137" height="61.588"/>
		
			<rect x="66.355" y="-96.502" clip-path="url(#SVGID_2_)" fill-rule="evenodd" clip-rule="evenodd" fill="#AF7B5C" width="0.141" height="61.588"/>
		
			<rect x="66.496" y="-96.502" clip-path="url(#SVGID_2_)" fill-rule="evenodd" clip-rule="evenodd" fill="#B07A5C" width="0.137" height="61.588"/>
		
			<rect x="66.633" y="-96.502" clip-path="url(#SVGID_2_)" fill-rule="evenodd" clip-rule="evenodd" fill="#B0795C" width="0.141" height="61.588"/>
		
			<rect x="66.773" y="-96.502" clip-path="url(#SVGID_2_)" fill-rule="evenodd" clip-rule="evenodd" fill="#B1785D" width="0.141" height="61.588"/>
		
			<rect x="66.914" y="-96.502" clip-path="url(#SVGID_2_)" fill-rule="evenodd" clip-rule="evenodd" fill="#B1775D" width="0.137" height="61.588"/>
		
			<rect x="67.051" y="-96.502" clip-path="url(#SVGID_2_)" fill-rule="evenodd" clip-rule="evenodd" fill="#B2765E" width="0.141" height="61.588"/>
		
			<rect x="67.191" y="-96.502" clip-path="url(#SVGID_2_)" fill-rule="evenodd" clip-rule="evenodd" fill="#B2755E" width="0.137" height="61.588"/>
		
			<rect x="67.328" y="-96.502" clip-path="url(#SVGID_2_)" fill-rule="evenodd" clip-rule="evenodd" fill="#B3745E" width="0.141" height="61.588"/>
		
			<rect x="67.469" y="-96.502" clip-path="url(#SVGID_2_)" fill-rule="evenodd" clip-rule="evenodd" fill="#B3735F" width="0.141" height="61.588"/>
		
			<rect x="67.609" y="-96.502" clip-path="url(#SVGID_2_)" fill-rule="evenodd" clip-rule="evenodd" fill="#B4725F" width="0.137" height="61.588"/>
		
			<rect x="67.746" y="-96.502" clip-path="url(#SVGID_2_)" fill-rule="evenodd" clip-rule="evenodd" fill="#B47160" width="0.137" height="61.588"/>
		
			<rect x="67.883" y="-96.502" clip-path="url(#SVGID_2_)" fill-rule="evenodd" clip-rule="evenodd" fill="#B57060" width="0.141" height="61.588"/>
		
			<rect x="68.023" y="-96.502" clip-path="url(#SVGID_2_)" fill-rule="evenodd" clip-rule="evenodd" fill="#B56F60" width="0.141" height="61.588"/>
		
			<rect x="68.164" y="-96.502" clip-path="url(#SVGID_2_)" fill-rule="evenodd" clip-rule="evenodd" fill="#B66E61" width="0.137" height="61.588"/>
		
			<rect x="68.301" y="-96.502" clip-path="url(#SVGID_2_)" fill-rule="evenodd" clip-rule="evenodd" fill="#B66D61" width="0.141" height="61.588"/>
		
			<rect x="68.441" y="-96.502" clip-path="url(#SVGID_2_)" fill-rule="evenodd" clip-rule="evenodd" fill="#B76C62" width="0.137" height="61.588"/>
		
			<rect x="68.578" y="-96.502" clip-path="url(#SVGID_2_)" fill-rule="evenodd" clip-rule="evenodd" fill="#B76B62" width="0.141" height="61.588"/>
		
			<rect x="68.719" y="-96.502" clip-path="url(#SVGID_2_)" fill-rule="evenodd" clip-rule="evenodd" fill="#B86A62" width="0.141" height="61.588"/>
		
			<rect x="68.859" y="-96.502" clip-path="url(#SVGID_2_)" fill-rule="evenodd" clip-rule="evenodd" fill="#B86963" width="0.137" height="61.588"/>
		
			<rect x="68.996" y="-96.502" clip-path="url(#SVGID_2_)" fill-rule="evenodd" clip-rule="evenodd" fill="#B96863" width="0.141" height="61.588"/>
		
			<rect x="69.137" y="-96.502" clip-path="url(#SVGID_2_)" fill-rule="evenodd" clip-rule="evenodd" fill="#B96763" width="0.137" height="61.588"/>
		
			<rect x="69.273" y="-96.502" clip-path="url(#SVGID_2_)" fill-rule="evenodd" clip-rule="evenodd" fill="#BA6664" width="0.141" height="61.588"/>
		
			<rect x="69.414" y="-96.502" clip-path="url(#SVGID_2_)" fill-rule="evenodd" clip-rule="evenodd" fill="#BA6564" width="0.141" height="61.588"/>
		
			<rect x="69.555" y="-96.502" clip-path="url(#SVGID_2_)" fill-rule="evenodd" clip-rule="evenodd" fill="#BB6465" width="0.137" height="61.588"/>
		
			<rect x="69.691" y="-96.502" clip-path="url(#SVGID_2_)" fill-rule="evenodd" clip-rule="evenodd" fill="#BB6365" width="0.141" height="61.588"/>
		
			<rect x="69.832" y="-96.502" clip-path="url(#SVGID_2_)" fill-rule="evenodd" clip-rule="evenodd" fill="#BB6165" width="0.137" height="61.588"/>
		
			<rect x="69.969" y="-96.502" clip-path="url(#SVGID_2_)" fill-rule="evenodd" clip-rule="evenodd" fill="#BC6066" width="0.141" height="61.588"/>
		
			<rect x="70.109" y="-96.502" clip-path="url(#SVGID_2_)" fill-rule="evenodd" clip-rule="evenodd" fill="#BC5F66" width="0.141" height="61.588"/>
		
			<rect x="70.25" y="-96.502" clip-path="url(#SVGID_2_)" fill-rule="evenodd" clip-rule="evenodd" fill="#BD5E67" width="0.137" height="61.588"/>
		
			<rect x="70.387" y="-96.502" clip-path="url(#SVGID_2_)" fill-rule="evenodd" clip-rule="evenodd" fill="#BD5D67" width="0.141" height="61.588"/>
		
			<rect x="70.527" y="-96.502" clip-path="url(#SVGID_2_)" fill-rule="evenodd" clip-rule="evenodd" fill="#BE5C67" width="0.137" height="61.588"/>
		
			<rect x="70.664" y="-96.502" clip-path="url(#SVGID_2_)" fill-rule="evenodd" clip-rule="evenodd" fill="#BE5B68" width="0.141" height="61.588"/>
		
			<rect x="70.805" y="-96.502" clip-path="url(#SVGID_2_)" fill-rule="evenodd" clip-rule="evenodd" fill="#BF5A68" width="0.141" height="61.588"/>
		
			<rect x="70.945" y="-96.502" clip-path="url(#SVGID_2_)" fill-rule="evenodd" clip-rule="evenodd" fill="#BF5968" width="0.137" height="61.588"/>
		
			<rect x="71.082" y="-96.502" clip-path="url(#SVGID_2_)" fill-rule="evenodd" clip-rule="evenodd" fill="#C05869" width="0.137" height="61.588"/>
		
			<rect x="71.219" y="-96.502" clip-path="url(#SVGID_2_)" fill-rule="evenodd" clip-rule="evenodd" fill="#C05769" width="0.141" height="61.588"/>
		
			<rect x="71.359" y="-96.502" clip-path="url(#SVGID_2_)" fill-rule="evenodd" clip-rule="evenodd" fill="#C1566A" width="0.141" height="61.588"/>
		
			<rect x="71.5" y="-96.502" clip-path="url(#SVGID_2_)" fill-rule="evenodd" clip-rule="evenodd" fill="#C1556A" width="0.137" height="61.588"/>
		
			<rect x="71.637" y="-96.502" clip-path="url(#SVGID_2_)" fill-rule="evenodd" clip-rule="evenodd" fill="#C2546A" width="0.141" height="61.588"/>
		
			<rect x="71.777" y="-96.502" clip-path="url(#SVGID_2_)" fill-rule="evenodd" clip-rule="evenodd" fill="#C2536B" width="0.137" height="61.588"/>
		
			<rect x="71.914" y="-96.502" clip-path="url(#SVGID_2_)" fill-rule="evenodd" clip-rule="evenodd" fill="#C3526B" width="0.141" height="61.588"/>
		
			<rect x="72.055" y="-96.502" clip-path="url(#SVGID_2_)" fill-rule="evenodd" clip-rule="evenodd" fill="#C3516C" width="0.141" height="61.588"/>
		
			<rect x="72.195" y="-96.502" clip-path="url(#SVGID_2_)" fill-rule="evenodd" clip-rule="evenodd" fill="#C4506C" width="0.137" height="61.588"/>
		
			<rect x="72.332" y="-96.502" clip-path="url(#SVGID_2_)" fill-rule="evenodd" clip-rule="evenodd" fill="#C44F6C" width="0.141" height="61.588"/>
		
			<rect x="72.473" y="-96.502" clip-path="url(#SVGID_2_)" fill-rule="evenodd" clip-rule="evenodd" fill="#C54E6D" width="0.137" height="61.588"/>
		
			<rect x="72.609" y="-96.502" clip-path="url(#SVGID_2_)" fill-rule="evenodd" clip-rule="evenodd" fill="#C54D6D" width="0.141" height="61.588"/>
		
			<rect x="72.75" y="-96.502" clip-path="url(#SVGID_2_)" fill-rule="evenodd" clip-rule="evenodd" fill="#C64C6E" width="0.141" height="61.588"/>
		
			<rect x="72.891" y="-96.502" clip-path="url(#SVGID_2_)" fill-rule="evenodd" clip-rule="evenodd" fill="#C64B6E" width="0.137" height="61.588"/>
		
			<rect x="73.027" y="-96.502" clip-path="url(#SVGID_2_)" fill-rule="evenodd" clip-rule="evenodd" fill="#C74A6E" width="0.141" height="61.588"/>
		
			<rect x="73.168" y="-96.502" clip-path="url(#SVGID_2_)" fill-rule="evenodd" clip-rule="evenodd" fill="#C7496F" width="0.137" height="61.588"/>
		
			<rect x="73.305" y="-96.502" clip-path="url(#SVGID_2_)" fill-rule="evenodd" clip-rule="evenodd" fill="#C8486F" width="0.141" height="61.588"/>
		
			<rect x="73.445" y="-96.502" clip-path="url(#SVGID_2_)" fill-rule="evenodd" clip-rule="evenodd" fill="#C8476F" width="0.141" height="61.588"/>
		
			<rect x="73.586" y="-96.502" clip-path="url(#SVGID_2_)" fill-rule="evenodd" clip-rule="evenodd" fill="#C94670" width="0.137" height="61.588"/>
		
			<rect x="73.723" y="-96.502" clip-path="url(#SVGID_2_)" fill-rule="evenodd" clip-rule="evenodd" fill="#C94570" width="0.137" height="61.588"/>
		
			<rect x="73.859" y="-96.502" clip-path="url(#SVGID_2_)" fill-rule="evenodd" clip-rule="evenodd" fill="#CA4471" width="0.141" height="61.588"/>
		
			<rect x="74" y="-96.502" clip-path="url(#SVGID_2_)" fill-rule="evenodd" clip-rule="evenodd" fill="#CA4371" width="0.141" height="61.588"/>
		
			<rect x="74.141" y="-96.502" clip-path="url(#SVGID_2_)" fill-rule="evenodd" clip-rule="evenodd" fill="#CB4271" width="0.137" height="61.588"/>
		
			<rect x="74.277" y="-96.502" clip-path="url(#SVGID_2_)" fill-rule="evenodd" clip-rule="evenodd" fill="#CB4172" width="0.141" height="61.588"/>
		
			<rect x="74.418" y="-96.502" clip-path="url(#SVGID_2_)" fill-rule="evenodd" clip-rule="evenodd" fill="#CC4072" width="0.137" height="61.588"/>
		
			<rect x="74.555" y="-96.502" clip-path="url(#SVGID_2_)" fill-rule="evenodd" clip-rule="evenodd" fill="#CC3F73" width="0.141" height="61.588"/>
		
			<rect x="74.695" y="-96.502" clip-path="url(#SVGID_2_)" fill-rule="evenodd" clip-rule="evenodd" fill="#CD3E73" width="0.141" height="61.588"/>
		
			<rect x="74.836" y="-96.502" clip-path="url(#SVGID_2_)" fill-rule="evenodd" clip-rule="evenodd" fill="#CD3D73" width="0.137" height="61.588"/>
		
			<rect x="74.973" y="-96.502" clip-path="url(#SVGID_2_)" fill-rule="evenodd" clip-rule="evenodd" fill="#CE3C74" width="0.141" height="61.588"/>
		
			<rect x="75.113" y="-96.502" clip-path="url(#SVGID_2_)" fill-rule="evenodd" clip-rule="evenodd" fill="#CE3B74" width="0.137" height="61.588"/>
		
			<rect x="75.25" y="-96.502" clip-path="url(#SVGID_2_)" fill-rule="evenodd" clip-rule="evenodd" fill="#CF3A75" width="0.141" height="61.588"/>
		
			<rect x="75.391" y="-96.502" clip-path="url(#SVGID_2_)" fill-rule="evenodd" clip-rule="evenodd" fill="#CF3975" width="0.141" height="61.588"/>
		
			<rect x="75.531" y="-96.502" clip-path="url(#SVGID_2_)" fill-rule="evenodd" clip-rule="evenodd" fill="#D03875" width="0.137" height="61.588"/>
		
			<rect x="75.668" y="-96.502" clip-path="url(#SVGID_2_)" fill-rule="evenodd" clip-rule="evenodd" fill="#D03776" width="0.141" height="61.588"/>
		
			<rect x="75.809" y="-96.502" clip-path="url(#SVGID_2_)" fill-rule="evenodd" clip-rule="evenodd" fill="#D13676" width="0.137" height="61.588"/>
		
			<rect x="75.945" y="-96.502" clip-path="url(#SVGID_2_)" fill-rule="evenodd" clip-rule="evenodd" fill="#D13576" width="0.141" height="61.588"/>
		
			<rect x="76.086" y="-96.502" clip-path="url(#SVGID_2_)" fill-rule="evenodd" clip-rule="evenodd" fill="#D23477" width="0.141" height="61.588"/>
		
			<rect x="76.227" y="-96.502" clip-path="url(#SVGID_2_)" fill-rule="evenodd" clip-rule="evenodd" fill="#D23377" width="0.137" height="61.588"/>
		
			<rect x="76.363" y="-96.502" clip-path="url(#SVGID_2_)" fill-rule="evenodd" clip-rule="evenodd" fill="#D33278" width="0.137" height="61.588"/>
		
			<rect x="76.5" y="-96.502" clip-path="url(#SVGID_2_)" fill-rule="evenodd" clip-rule="evenodd" fill="#D33178" width="0.141" height="61.588"/>
		
			<rect x="76.641" y="-96.502" clip-path="url(#SVGID_2_)" fill-rule="evenodd" clip-rule="evenodd" fill="#D33078" width="0.141" height="61.588"/>
		
			<rect x="76.781" y="-96.502" clip-path="url(#SVGID_2_)" fill-rule="evenodd" clip-rule="evenodd" fill="#D42F79" width="0.137" height="61.588"/>
		
			<rect x="76.918" y="-96.502" clip-path="url(#SVGID_2_)" fill-rule="evenodd" clip-rule="evenodd" fill="#D42E79" width="0.141" height="61.588"/>
		
			<rect x="77.059" y="-96.502" clip-path="url(#SVGID_2_)" fill-rule="evenodd" clip-rule="evenodd" fill="#D52D7A" width="0.137" height="61.588"/>
		
			<rect x="77.195" y="-96.502" clip-path="url(#SVGID_2_)" fill-rule="evenodd" clip-rule="evenodd" fill="#D52C7A" width="0.141" height="61.588"/>
		
			<rect x="77.336" y="-96.502" clip-path="url(#SVGID_2_)" fill-rule="evenodd" clip-rule="evenodd" fill="#D62B7A" width="0.141" height="61.588"/>
		
			<rect x="77.477" y="-96.502" clip-path="url(#SVGID_2_)" fill-rule="evenodd" clip-rule="evenodd" fill="#D62A7B" width="0.137" height="61.588"/>
		
			<rect x="77.613" y="-96.502" clip-path="url(#SVGID_2_)" fill-rule="evenodd" clip-rule="evenodd" fill="#D7297B" width="0.141" height="61.588"/>
		
			<rect x="77.754" y="-96.502" clip-path="url(#SVGID_2_)" fill-rule="evenodd" clip-rule="evenodd" fill="#D7287B" width="0.137" height="61.588"/>
		
			<rect x="77.891" y="-96.502" clip-path="url(#SVGID_2_)" fill-rule="evenodd" clip-rule="evenodd" fill="#D8277C" width="0.141" height="61.588"/>
		
			<rect x="78.031" y="-96.502" clip-path="url(#SVGID_2_)" fill-rule="evenodd" clip-rule="evenodd" fill="#D8267C" width="0.141" height="61.588"/>
		
			<rect x="78.172" y="-96.502" clip-path="url(#SVGID_2_)" fill-rule="evenodd" clip-rule="evenodd" fill="#D9257D" width="0.137" height="61.588"/>
		
			<rect x="78.309" y="-96.502" clip-path="url(#SVGID_2_)" fill-rule="evenodd" clip-rule="evenodd" fill="#D9247D" width="0.141" height="61.588"/>
		
			<rect x="78.449" y="-96.502" clip-path="url(#SVGID_2_)" fill-rule="evenodd" clip-rule="evenodd" fill="#DA237D" width="0.137" height="61.588"/>
		
			<rect x="78.586" y="-96.502" clip-path="url(#SVGID_2_)" fill-rule="evenodd" clip-rule="evenodd" fill="#DA227E" width="0.141" height="61.588"/>
		
			<rect x="78.727" y="-96.502" clip-path="url(#SVGID_2_)" fill-rule="evenodd" clip-rule="evenodd" fill="#DB217E" width="0.141" height="61.588"/>
		
			<rect x="78.867" y="-96.502" clip-path="url(#SVGID_2_)" fill-rule="evenodd" clip-rule="evenodd" fill="#DB207F" width="0.137" height="61.588"/>
		
			<rect x="79.004" y="-96.502" clip-path="url(#SVGID_2_)" fill-rule="evenodd" clip-rule="evenodd" fill="#DC1F7F" width="0.141" height="61.588"/>
		
			<rect x="79.145" y="-96.502" clip-path="url(#SVGID_2_)" fill-rule="evenodd" clip-rule="evenodd" fill="#DC1E7F" width="0.137" height="61.588"/>
		
			<rect x="79.281" y="-96.502" clip-path="url(#SVGID_2_)" fill-rule="evenodd" clip-rule="evenodd" fill="#DD1D80" width="0.141" height="61.588"/>
		
			<rect x="79.422" y="-96.502" clip-path="url(#SVGID_2_)" fill-rule="evenodd" clip-rule="evenodd" fill="#DD1C80" width="0.141" height="61.588"/>
		
			<rect x="79.562" y="-96.502" clip-path="url(#SVGID_2_)" fill-rule="evenodd" clip-rule="evenodd" fill="#DE1B81" width="0.137" height="61.588"/>
		
			<rect x="79.699" y="-96.502" clip-path="url(#SVGID_2_)" fill-rule="evenodd" clip-rule="evenodd" fill="#DE1A81" width="0.137" height="61.588"/>
		
			<rect x="79.836" y="-96.502" clip-path="url(#SVGID_2_)" fill-rule="evenodd" clip-rule="evenodd" fill="#DF1981" width="0.141" height="61.588"/>
		
			<rect x="79.977" y="-96.502" clip-path="url(#SVGID_2_)" fill-rule="evenodd" clip-rule="evenodd" fill="#DF1882" width="0.141" height="61.588"/>
		
			<rect x="80.117" y="-96.502" clip-path="url(#SVGID_2_)" fill-rule="evenodd" clip-rule="evenodd" fill="#E01782" width="0.137" height="61.588"/>
		
			<rect x="80.254" y="-96.502" clip-path="url(#SVGID_2_)" fill-rule="evenodd" clip-rule="evenodd" fill="#E01682" width="0.141" height="61.588"/>
		
			<rect x="80.395" y="-96.502" clip-path="url(#SVGID_2_)" fill-rule="evenodd" clip-rule="evenodd" fill="#E11583" width="0.137" height="61.588"/>
		
			<rect x="80.531" y="-96.502" clip-path="url(#SVGID_2_)" fill-rule="evenodd" clip-rule="evenodd" fill="#E11483" width="0.141" height="61.588"/>
		
			<rect x="80.672" y="-96.502" clip-path="url(#SVGID_2_)" fill-rule="evenodd" clip-rule="evenodd" fill="#E21384" width="0.141" height="61.588"/>
		
			<rect x="80.812" y="-96.502" clip-path="url(#SVGID_2_)" fill-rule="evenodd" clip-rule="evenodd" fill="#E21284" width="0.137" height="61.588"/>
		
			<rect x="80.949" y="-96.502" clip-path="url(#SVGID_2_)" fill-rule="evenodd" clip-rule="evenodd" fill="#E31184" width="0.141" height="61.588"/>
		
			<rect x="81.09" y="-96.502" clip-path="url(#SVGID_2_)" fill-rule="evenodd" clip-rule="evenodd" fill="#E31085" width="0.137" height="61.588"/>
		
			<rect x="81.227" y="-96.502" clip-path="url(#SVGID_2_)" fill-rule="evenodd" clip-rule="evenodd" fill="#E40F85" width="0.141" height="61.588"/>
		
			<rect x="81.367" y="-96.502" clip-path="url(#SVGID_2_)" fill-rule="evenodd" clip-rule="evenodd" fill="#E40E86" width="0.141" height="61.588"/>
		
			<rect x="81.508" y="-96.502" clip-path="url(#SVGID_2_)" fill-rule="evenodd" clip-rule="evenodd" fill="#E50D86" width="0.137" height="61.588"/>
		
			<rect x="81.645" y="-96.502" clip-path="url(#SVGID_2_)" fill-rule="evenodd" clip-rule="evenodd" fill="#E50C86" width="0.141" height="61.588"/>
		
			<rect x="81.785" y="-96.502" clip-path="url(#SVGID_2_)" fill-rule="evenodd" clip-rule="evenodd" fill="#E60B87" width="0.137" height="61.588"/>
		
			<rect x="81.922" y="-96.502" clip-path="url(#SVGID_2_)" fill-rule="evenodd" clip-rule="evenodd" fill="#E60A87" width="0.141" height="61.588"/>
		
			<rect x="82.062" y="-96.502" clip-path="url(#SVGID_2_)" fill-rule="evenodd" clip-rule="evenodd" fill="#E70988" width="0.141" height="61.588"/>
		
			<rect x="82.203" y="-96.502" clip-path="url(#SVGID_2_)" fill-rule="evenodd" clip-rule="evenodd" fill="#E70888" width="0.137" height="61.588"/>
		
			<rect x="82.34" y="-96.502" clip-path="url(#SVGID_2_)" fill-rule="evenodd" clip-rule="evenodd" fill="#E80788" width="0.137" height="61.588"/>
		
			<rect x="82.477" y="-96.502" clip-path="url(#SVGID_2_)" fill-rule="evenodd" clip-rule="evenodd" fill="#E80689" width="0.141" height="61.588"/>
		
			<rect x="82.617" y="-96.502" clip-path="url(#SVGID_2_)" fill-rule="evenodd" clip-rule="evenodd" fill="#E90589" width="0.141" height="61.588"/>
		
			<rect x="82.758" y="-96.502" clip-path="url(#SVGID_2_)" fill-rule="evenodd" clip-rule="evenodd" fill="#E90489" width="0.137" height="61.588"/>
		
			<rect x="82.895" y="-96.502" clip-path="url(#SVGID_2_)" fill-rule="evenodd" clip-rule="evenodd" fill="#EA038A" width="0.141" height="61.588"/>
		
			<rect x="83.035" y="-96.502" clip-path="url(#SVGID_2_)" fill-rule="evenodd" clip-rule="evenodd" fill="#EA028A" width="0.137" height="61.588"/>
		
			<rect x="83.172" y="-96.502" clip-path="url(#SVGID_2_)" fill-rule="evenodd" clip-rule="evenodd" fill="#EB018B" width="0.141" height="61.588"/>
		
			<rect x="83.312" y="-96.502" clip-path="url(#SVGID_2_)" fill-rule="evenodd" clip-rule="evenodd" fill="#EB008B" width="0.141" height="61.588"/>
		
			<rect x="83.453" y="-96.502" clip-path="url(#SVGID_2_)" fill-rule="evenodd" clip-rule="evenodd" fill="#EB008B" width="1.492" height="61.588"/>
	</g>
</g>
<g>
	<linearGradient id="SVGID_3_" gradientUnits="userSpaceOnUse" x1="14.5142" y1="-65.5068" x2="92.4844" y2="-65.5068">
		<stop  offset="0.0083" style="stop-color:#EB008B"/>
		<stop  offset="0.5061" style="stop-color:#8BC53F"/>
		<stop  offset="1" style="stop-color:#F9EC31"/>
	</linearGradient>
	<path fill="url(#SVGID_3_)" d="M53.5-26.522c-21.497,0-38.986-17.487-38.986-38.983c0-21.497,17.489-38.986,38.986-38.986
		c21.496,0,38.984,17.489,38.984,38.986C92.484-44.01,74.996-26.522,53.5-26.522z M53.5-102.211
		c-20.24,0-36.706,16.466-36.706,36.706c0,20.238,16.466,36.704,36.706,36.704c20.239,0,36.705-16.466,36.705-36.704
		C90.205-85.746,73.739-102.211,53.5-102.211z"/>
</g>
<g>
	<path fill="#5FBA46" d="M11.39-75.873c0.335-0.014,0.56,0.28,0.674,0.882c-0.124,1.006-0.512,1.547-1.166,1.622
		c-0.554-0.012-1.174-0.25-1.861-0.713c-0.727-0.5-1.314-0.778-1.763-0.833C7.1-74.935,6.923-74.94,6.743-74.93
		c-0.394,0.141-0.621,0.452-0.681,0.933c-0.016,0.131-0.021,0.336-0.018,0.614c0.005,0.277,0,0.472-0.013,0.581
		c0.262,1.031,0.914,1.867,1.957,2.505c0.363,0.211,1.359,0.64,2.989,1.284c0.23,0.295,0.324,0.618,0.281,0.967
		c-0.023,0.187-0.087,0.346-0.192,0.477c-0.247,0.113-0.496,0.154-0.748,0.124c-0.371-0.045-0.839-0.308-1.401-0.789
		c-0.732-0.635-1.187-1-1.364-1.101c-0.604-0.229-0.955-0.351-1.054-0.363c-0.24-0.029-0.469,0.021-0.685,0.149
		c-0.116,0.131-0.183,0.272-0.202,0.425c-0.021,0.164,0.025,0.382,0.137,0.65c0.137,0.327,0.211,0.542,0.221,0.643
		c0.336,0.509,0.957,1.111,1.858,1.812c0.902,0.699,1.552,1.329,1.949,1.89c-0.005,0.043,0.018,0.124,0.071,0.24
		c0.068,0.075,0.16,0.187,0.274,0.334c0.158,0.342,0.255,0.642,0.289,0.901c0.005,0.045,0.031,0.153,0.076,0.326
		c0.03,0.114,0.034,0.221,0.011,0.318c-0.047,0.204-0.167,0.367-0.36,0.488c-0.257-0.076-0.423-0.155-0.496-0.237
		c-0.073-0.081-0.116-0.243-0.131-0.49c0.015-0.12-0.04-0.349-0.165-0.687c-0.045-0.083-0.103-0.195-0.175-0.337
		c-0.021-0.104-0.054-0.24-0.1-0.412c-0.035-0.071-0.1-0.138-0.192-0.199c-0.092-0.061-0.153-0.11-0.181-0.146
		c-0.34-0.397-1.014-1.052-2.023-1.964c-0.758-0.693-1.274-1.29-1.545-1.79c-0.366-0.722-0.46-1.583-0.281-2.583
		c0.571-0.129,0.876-0.353,0.915-0.671c0.024-0.196-0.106-0.579-0.392-1.147c-0.286-0.568-0.394-0.992-0.327-1.272
		c0.095-0.499,0.184-0.999,0.268-1.499c0.156-0.547,0.465-0.887,0.925-1.019c0.274-0.065,0.559-0.081,0.854-0.044
		c0.449,0.055,1.024,0.276,1.726,0.663c0.702,0.385,1.168,0.592,1.397,0.621c0.35,0.043,0.619-0.107,0.805-0.451
		c0.005-0.31,0.034-0.495,0.084-0.555C11.202-75.784,11.296-75.828,11.39-75.873z"/>
	<path fill="#5FBA46" d="M9.392-84.695c0.197-0.056,0.389-0.047,0.574,0.022c0.515,0.195,0.969,0.863,1.363,2.001
		c0.318,0.933,0.539,1.984,0.662,3.149c0.573-0.207,1.017-0.786,1.331-1.739c0.072-0.032,0.146-0.105,0.223-0.217
		c-0.035-0.061-0.06-0.152-0.072-0.275c0.071-0.22,0.154-0.5,0.248-0.842c-0.001-0.118,0.019-0.235,0.062-0.349
		c0.07-0.186,0.181-0.32,0.33-0.404c0.15-0.085,0.287-0.104,0.41-0.057c0.299,0.113,0.349,0.432,0.149,0.958
		c-0.066,0.175-0.085,0.303-0.058,0.385c-0.032,0.023-0.08,0.087-0.144,0.192c-0.122,0.603-0.261,1.11-0.417,1.522
		c-0.434,1.144-1.075,1.855-1.923,2.135c0.057,0.41,0.068,0.986,0.034,1.727c-0.01,0.149-0.027,0.338-0.054,0.563
		c-0.108,0.006-0.219,0.035-0.333,0.086c0.088,0.08,0.173,0.182,0.255,0.308c-0.039,0.162-0.084,0.315-0.139,0.46
		c-0.184,0.484-0.396,0.657-0.638,0.518c-0.169-0.052-0.255-0.144-0.259-0.274c-0.003-0.131,0-0.271,0.01-0.421
		c0.154-0.779,0.244-1.28,0.27-1.506c0.049-0.535-0.007-0.975-0.171-1.32c-0.328-0.065-0.637-0.153-0.925-0.262
		c-1.329-0.505-2.207-1.502-2.63-2.994c0.117-0.31,0.177-0.5,0.18-0.569c0.038-0.222-0.06-0.354-0.292-0.394
		c0.093-0.401,0.188-0.729,0.286-0.987C8.051-84.144,8.607-84.615,9.392-84.695z M9.652-83.377
		c-0.402-0.059-0.707,0.186-0.914,0.732c-0.054,0.145-0.111,0.34-0.17,0.589c-0.175,0.711-0.032,1.295,0.431,1.755
		c0.137,0.075,0.351,0.232,0.643,0.473c0.292,0.241,0.536,0.397,0.731,0.471c0.186,0.071,0.379,0.104,0.582,0.096
		c-0.065-0.201-0.107-0.493-0.126-0.878c-0.02-0.384-0.071-0.699-0.156-0.942c-0.18-0.552-0.32-0.958-0.421-1.221
		C10.036-82.819,9.836-83.178,9.652-83.377z"/>
	<path fill="#5FBA46" d="M17.37-99.274c0.199-0.033,0.389,0.014,0.568,0.143c0.161,0.115,0.387,0.405,0.677,0.872
		c-0.075,0.692,0.047,1.381,0.367,2.071c0.319,0.69,0.739,1.22,1.259,1.592c0.619-0.031,1.114-0.287,1.484-0.767
		c0.138-0.023,0.261,0.003,0.368,0.082c0.251,0.179,0.255,0.466,0.013,0.862c-0.029,0.115-0.074,0.218-0.139,0.308
		c-0.147,0.206-0.466,0.372-0.954,0.497c-0.489,0.123-0.785,0.258-0.888,0.401c-0.103,0.144-0.123,0.332-0.06,0.567
		c-0.128,0.424-0.248,0.847-0.359,1.267c-0.155,0.539-0.336,0.952-0.541,1.239c-0.295,0.412-0.69,0.651-1.185,0.718
		c-0.025-0.059-0.061-0.104-0.105-0.137c-0.072-0.051-0.188-0.044-0.352,0.023c-0.163,0.065-0.294,0.083-0.394,0.053
		c0.167,1.244-0.083,2.332-0.751,3.263c-0.314,0.44-0.706,0.816-1.175,1.13c-0.064-0.004-0.253-0.072-0.566-0.202
		c-0.221-0.089-0.409-0.11-0.567-0.061c-0.056,0.042-0.097,0.081-0.123,0.116c-0.077,0.107-0.061,0.254,0.05,0.443
		c0.11,0.186,0.167,0.315,0.171,0.386c-0.091,0.979-0.229,1.597-0.415,1.858c-0.058,0.08-0.125,0.153-0.2,0.222
		c-0.079,0.147-0.193,0.231-0.343,0.252c-0.151,0.02-0.285-0.011-0.401-0.094c-0.161-0.115-0.222-0.268-0.182-0.456
		c0.047-0.047,0.091-0.097,0.129-0.152c0.154-0.215,0.25-0.586,0.289-1.113c0.029-0.589,0.09-0.987,0.182-1.192
		c-0.134,0-0.237-0.028-0.309-0.08c-0.107-0.077-0.164-0.286-0.169-0.629s-0.093-0.575-0.264-0.697
		c0.002-0.459-0.176-0.965-0.537-1.523c-0.523-0.82-0.802-1.265-0.836-1.331c-0.219-0.508-0.192-0.991,0.08-1.446
		c0.284-0.095,0.494-0.093,0.628,0.003c0.117,0.083,0.195,0.332,0.237,0.748s0.131,0.693,0.269,0.833
		c0.137,0.139,0.389,0.53,0.756,1.172c0.312,0.548,0.598,0.916,0.857,1.102c0.368,0.264,0.797,0.299,1.285,0.106
		c0.102-0.102,0.191-0.208,0.269-0.315c0.442-0.618,0.633-1.255,0.572-1.908c-0.257-0.833-0.518-1.672-0.783-2.512
		c-0.346-0.898-0.807-1.601-1.379-2.106c-0.114-0.637-0.068-1.098,0.138-1.385c0.153-0.215,0.385-0.245,0.695-0.092
		c0.425,0.373,0.785,1.091,1.08,2.155c0.282,0.989,0.68,1.653,1.195,1.995c0.28,0.119,0.486,0.191,0.617,0.218
		c0.219,0.034,0.399-0.02,0.541-0.162c0.45-0.531,0.731-1.119,0.846-1.763c0.115-0.643,0.025-1.232-0.269-1.768
		c-0.127-0.049-0.214-0.217-0.261-0.501c-0.047-0.284-0.115-0.458-0.205-0.522c-0.071-0.052-0.174-0.07-0.306-0.057
		c0.013-0.302-0.124-0.679-0.412-1.128c-0.404-0.628-0.627-0.998-0.669-1.11c-0.179-0.413-0.153-0.78,0.078-1.104
		C17.062-99.014,17.193-99.143,17.37-99.274z"/>
	<path fill="#5FBA46" d="M33.837-103.625c-0.016,0.397-0.23,0.722-0.645,0.974c-0.235,0.144-0.529,0.265-0.882,0.364
		c-0.547-0.157-0.936-0.423-1.165-0.799c-0.178-0.292-0.293-0.787-0.344-1.485c-0.051-0.698-0.164-1.188-0.335-1.47
		c-0.218-0.357-0.578-0.609-1.08-0.755c-0.542,0.255-0.889,0.426-1.039,0.519c-0.471,0.288-0.795,0.627-0.975,1.021
		c-0.18,0.395-0.239,1.043-0.178,1.948c0.076,1.012,0.041,1.801-0.104,2.368c0.05,0.06,0.069,0.171,0.059,0.333
		c-0.012,0.161-0.046,0.269-0.104,0.323c-0.057,0.055-0.115,0.223-0.176,0.505c-0.051,0.147-0.166,0.372-0.343,0.674
		c-0.041,0.038-0.166,0.225-0.376,0.559c-0.153,0.236-0.305,0.399-0.456,0.491C25.6-98,25.507-97.965,25.417-97.956
		c-0.09,0.011-0.213,0.005-0.369-0.016c-0.088-0.103-0.151-0.185-0.192-0.252c-0.143-0.235-0.072-0.446,0.214-0.632
		c0.457-0.395,0.767-0.849,0.931-1.363c0.141-0.847,0.216-1.486,0.225-1.918c0.005-0.815-0.146-1.666-0.452-2.55
		c-0.303-1.3-0.319-2.258-0.05-2.875c-0.033-0.16-0.179-0.504-0.436-1.031c-0.207-0.403-0.278-0.741-0.212-1.014
		c0.061-0.049,0.187-0.191,0.38-0.425c0.151-0.195,0.283-0.328,0.396-0.396c0.227-0.139,0.443-0.09,0.65,0.145
		c-0.256,1.06-0.097,2.306,0.479,3.737c0.416-0.461,0.77-0.78,1.062-0.958c0.339-0.207,0.756-0.358,1.253-0.454
		c0.723-0.105,1.342,0.265,1.859,1.112c0.103,0.168,0.27,0.474,0.499,0.914c-0.067,0.61,0.005,1.088,0.218,1.437
		c0.126,0.207,0.316,0.401,0.568,0.583c0.135,0.137,0.371,0.148,0.707,0.033c0.337-0.116,0.543-0.111,0.617,0.011
		C33.805-103.805,33.829-103.722,33.837-103.625z"/>
	<path fill="#5FBA46" d="M40.983-112.499c0.109,0.556,0.002,1.461-0.324,2.716c-0.284,1.135-0.311,1.989-0.079,2.561
		c0.176,0.278,0.406,0.368,0.687,0.271c0.115-0.039,0.255-0.104,0.422-0.197c0.239-0.152,0.395-0.124,0.466,0.084
		c0.032,0.094,0.032,0.229-0.001,0.402c-0.077,0.318-0.209,0.51-0.396,0.574c-0.053,0.018-0.144,0.034-0.271,0.05
		c-0.129,0.014-0.23,0.035-0.303,0.06c-0.062,0.021-0.13,0.056-0.2,0.104c-0.071,0.048-0.122,0.077-0.153,0.088
		c-0.104,0.035-0.285,0.001-0.542-0.103c-0.258-0.104-0.452-0.144-0.584-0.122c-0.447,0.667-1.061,1.134-1.842,1.402
		c-0.344,0.119-0.712,0.2-1.106,0.242c-0.226,0.019-0.501-0.12-0.824-0.416c-0.299-0.258-0.542-0.337-0.729-0.238
		c-0.18,0.05-0.286,0.098-0.317,0.144c-0.062,0.092-0.116,0.178-0.164,0.259s-0.21,0.295-0.485,0.647
		c-0.189,0.193-0.473,0.419-0.851,0.677c-0.177,0.062-0.309,0.102-0.396,0.12c-0.133-0.083-0.23-0.211-0.292-0.39
		c-0.082-0.239-0.037-0.412,0.136-0.519c0.368-0.15,0.748-0.484,1.141-1.004c0.034-0.139,0.208-0.462,0.523-0.967
		c0.103-0.141,0.204-0.374,0.301-0.699c-0.017-0.319-0.017-0.542,0-0.664c0.022-0.205,0.08-0.493,0.174-0.864
		c0.081-0.237,0.169-0.506,0.264-0.808c0.017-0.053,0.009-0.082-0.022-0.088c-0.031-0.008-0.043-0.035-0.038-0.083
		c0.472-1.304,1.197-2.125,2.177-2.463c0.344-0.119,0.729-0.182,1.159-0.189c0.115-0.004,0.344,0.069,0.687,0.219
		c0.287,0.123,0.519,0.136,0.695,0.04c0.023-0.067,0.062-0.225,0.115-0.477c0.044-0.178,0.123-0.305,0.236-0.379
		c0.046-0.039,0.094-0.066,0.146-0.084C40.454-112.614,40.651-112.584,40.983-112.499z M39.275-110.25
		c-0.159-0.259-0.402-0.423-0.729-0.492c-0.327-0.068-0.667-0.041-1.021,0.081c-0.636,0.219-1.045,0.604-1.228,1.157
		c-0.008,0.211-0.132,0.733-0.372,1.561c-0.188,0.637-0.222,1.131-0.1,1.486c0.094,0.271,0.283,0.516,0.567,0.731
		c0.352,0.275,0.693,0.357,1.027,0.241c0.188-0.063,0.482-0.258,0.882-0.583c0.543-0.454,0.896-1.088,1.059-1.902
		C39.52-108.727,39.492-109.486,39.275-110.25z"/>
	<path fill="#5FBA46" d="M50.569-108.702c0.198-0.015,0.313,0.104,0.345,0.355c0.04,0.307-0.104,0.492-0.43,0.554
		c-0.146,0.075-0.295,0.122-0.448,0.141c-0.263,0.033-0.612-0.025-1.048-0.174c-0.435-0.15-0.751-0.213-0.948-0.188
		c-0.284,0.037-0.545,0.219-0.78,0.549c-0.469,0.16-0.889,0.263-1.26,0.31c-0.973,0.125-1.71-0.126-2.212-0.751
		c-0.084-0.044-0.153-0.063-0.208-0.057c-0.065,0.008-0.134,0.117-0.208,0.327c-0.041,0.116-0.107,0.205-0.2,0.268
		c-0.092,0.061-0.173,0.118-0.244,0.172c-0.165,0.188-0.383,0.31-0.653,0.367c-0.065,0.009-0.175,0.042-0.329,0.101
		c-0.154,0.058-0.274,0.093-0.362,0.104c-0.175,0.023-0.335-0.018-0.481-0.12c-0.065-0.159-0.085-0.317-0.062-0.477
		c0.033-0.182,0.109-0.28,0.229-0.296c0.184-0.046,0.368-0.094,0.556-0.146s0.332-0.123,0.431-0.213
		c0.055-0.006,0.148-0.058,0.28-0.152c0.098-0.101,0.206-0.214,0.323-0.341c0.083-0.133,0.176-0.278,0.278-0.436
		c0.037-0.06,0.108-0.197,0.214-0.41c0.183-0.39,0.329-0.869,0.433-1.439c0.084-0.477,0.163-0.947,0.236-1.413l0.338-0.225
		c-0.103-0.109-0.16-0.208-0.171-0.296c-0.012-0.098,0.065-0.233,0.232-0.404c0.167-0.171,0.241-0.333,0.221-0.486
		c0.071-0.398,0.306-1.089,0.702-2.073c0.16-0.398,0.272-0.696,0.336-0.893c0.113-0.336,0.19-0.647,0.231-0.93
		c0.489-0.262,0.793-0.401,0.914-0.416c0.219-0.028,0.4,0.048,0.545,0.23c0.019,0.054,0.03,0.103,0.036,0.146
		c0.018,0.142-0.023,0.272-0.125,0.391c-0.101,0.119-0.201,0.229-0.299,0.329c-0.175,0.201-0.248,0.404-0.223,0.612
		c-0.1,0.256-0.232,0.657-0.396,1.2c-0.127,0.483-0.175,0.85-0.143,1.102c0.01,0.075,0.03,0.145,0.06,0.208
		c0.442-0.366,0.941-0.585,1.499-0.657c0.656-0.084,1.316,0.044,1.982,0.381c0.386,0.328,0.608,0.722,0.667,1.181
		c0.065,0.514-0.142,1.279-0.625,2.296c-0.129,0.205-0.298,0.532-0.508,0.98c-0.195,0.038-0.278,0.164-0.251,0.382
		c0.01,0.076,0.062,0.136,0.157,0.18c0.193,0.209,0.519,0.284,0.978,0.225C50.148-108.599,50.278-108.632,50.569-108.702z
		 M49.205-111.295c0.094-0.401,0.123-0.737,0.088-1.01c-0.04-0.318-0.167-0.573-0.381-0.768c-0.376-0.163-0.728-0.224-1.056-0.183
		c-0.382,0.05-0.868,0.294-1.456,0.736c-0.161,0.131-0.425,0.327-0.792,0.584c-0.582,1.019-0.819,1.942-0.713,2.774
		c0.044,0.35,0.157,0.663,0.337,0.94c0.456-0.081,0.918-0.156,1.387-0.228c0.551-0.125,0.931-0.368,1.14-0.729
		c0.164-0.02,0.304-0.144,0.42-0.37c0.115-0.225,0.239-0.346,0.37-0.363c0.054-0.007,0.116-0.004,0.185,0.01
		C48.842-110.183,48.999-110.646,49.205-111.295z"/>
	<path fill="#5FBA46" d="M55.965-108.803c0.12,0.038,0.177,0.132,0.172,0.287c-0.014,0.353-0.171,0.6-0.475,0.743
		c-0.111,0.052-0.294,0.044-0.545-0.02c-0.74,0.017-1.231-0.26-1.475-0.831c-0.069-0.202-0.132-0.325-0.185-0.371
		c-0.118-0.115-0.235-0.225-0.353-0.328c-0.264-0.01-0.556,0.134-0.875,0.431c-0.354,0.329-0.626,0.518-0.815,0.565
		c-0.574,0.31-1.015,0.459-1.323,0.448c-0.099-0.003-0.169-0.034-0.211-0.09c-0.074-0.102-0.108-0.219-0.103-0.351
		c0.01-0.265,0.138-0.454,0.384-0.565c0.489-0.092,0.928-0.286,1.321-0.58c0.391-0.294,0.851-0.746,1.381-1.355
		c0.427-0.513,0.859-1.026,1.297-1.54c0.073-0.494,0.223-0.951,0.448-1.373c0.272-0.52,0.562-0.773,0.871-0.761
		c0.221,0.008,0.44,0.16,0.661,0.453c-1.244,1.443-1.851,2.932-1.818,4.467c0.115,0.479,0.464,0.728,1.048,0.749
		C55.543-108.742,55.742-108.734,55.965-108.803z M57.535-116.421c-0.168,0.082-0.303,0.304-0.404,0.664
		c-0.078,0.306-0.204,0.456-0.381,0.449c-0.11-0.003-0.24-0.042-0.393-0.114c-0.236-0.163-0.482-0.52-0.738-1.069
		c0.322-0.363,0.721-0.537,1.193-0.519C57.198-116.995,57.439-116.799,57.535-116.421z"/>
	<path fill="#5FBA46" d="M65.225-113.722c-0.041,0.172-0.156,0.421-0.347,0.745c-0.304-0.119-0.618-0.241-0.943-0.364
		s-0.608-0.205-0.847-0.246c-0.357-0.062-0.719-0.052-1.079,0.032c-0.171,0.148-0.411,0.572-0.722,1.266
		c-0.25,0.54-0.585,0.862-1.006,0.968c0.018,0.092,0.018,0.193-0.002,0.301c-0.027,0.164-0.121,0.396-0.279,0.698
		c-0.158,0.303-0.25,0.525-0.274,0.666c-0.039,0.229,0.015,0.433,0.163,0.615c0.01,0.259,0.191,0.468,0.545,0.63
		c0.329,0.103,0.657,0.208,0.984,0.321c0.089,0.005,0.197,0.023,0.326,0.057c0.264,0.023,0.369,0.192,0.314,0.507
		c-0.053,0.304-0.168,0.457-0.348,0.459c-0.094-0.038-0.243-0.047-0.448-0.027c-1.379-0.238-2.328-0.825-2.849-1.766
		c-0.726,0.512-1.354,0.791-1.888,0.832c-0.476,0.029-0.868,0.007-1.18-0.07c-0.2-0.135-0.277-0.333-0.233-0.593
		c0.027-0.152,0.102-0.257,0.223-0.314c0.424,0.006,0.87,0.011,1.34,0.014c0.264-0.1,0.671-0.292,1.224-0.577
		c0.454-0.302,0.932-0.862,1.431-1.683c0.543-0.879,0.972-1.454,1.287-1.723l0.251-0.778c-0.129-0.157-0.397-0.22-0.806-0.19
		c-0.341,0.031-0.551-0.111-0.631-0.427c0.109-0.44,0.398-0.62,0.865-0.54c0.075,0.014,0.203,0.042,0.379,0.083
		c0.178,0.042,0.311,0.07,0.397,0.085c0.51,0.087,0.858-0.082,1.043-0.508c-0.062-0.089-0.087-0.176-0.071-0.264
		c0.013-0.076,0.09-0.197,0.23-0.363c0.14-0.166,0.207-0.299,0.203-0.4c0.104-0.016,0.319-0.107,0.65-0.273
		c0.271-0.144,0.482-0.203,0.635-0.177c0.141,0.025,0.259,0.118,0.354,0.28l-1.323,1.935c0.149,0.171,0.339,0.277,0.566,0.316
		c0.12,0.02,0.309,0.025,0.567,0.014c0.26-0.012,0.455-0.005,0.585,0.017C64.795-114.114,65.032-113.967,65.225-113.722z"/>
	<path fill="#5FBA46" d="M71.047-104.708c-0.405,0.274-0.795,0.343-1.167,0.208c0.021,0.007-0.239-0.134-0.777-0.424l-0.298-0.39
		c-0.708,0.012-1.337-0.083-1.886-0.283c-0.89-0.324-1.706-0.997-2.448-2.019c-0.066-0.107-0.059-0.274,0.024-0.502
		c-0.116,0.029-0.243,0.041-0.383,0.037c-0.171,0.02-0.628,0.146-1.37,0.381c-0.464,0.146-0.954,0.155-1.47,0.026
		c-0.257-0.07-0.334-0.245-0.231-0.524c0.026-0.072,0.064-0.146,0.116-0.222c0.069-0.126,0.153-0.195,0.251-0.207
		c0.011,0.004,0.134,0.02,0.37,0.047c0.454,0.107,0.846,0.126,1.175,0.059c1.276-0.25,2.207-0.504,2.793-0.759
		c0.893-0.39,1.881-1.074,2.965-2.051c0.141-0.195,0.287-0.388,0.439-0.579c0.259-0.293,0.518-0.485,0.773-0.58
		c0.076,0.017,0.182,0.02,0.314,0.008c0.271,0.123,0.411,0.191,0.418,0.206c0.098,0.083,0.154,0.28,0.171,0.59
		c-0.155,0.425-0.016,1.033,0.417,1.824c0.434,0.792,0.57,1.404,0.412,1.839c-0.053,0.145-0.133,0.285-0.241,0.422
		c-0.229,0.433-0.564,0.792-1.009,1.075c-0.443,0.284-0.717,0.501-0.817,0.651c0.085,0.184,0.427,0.391,1.023,0.62
		c0.072,0.026,0.157,0.051,0.254,0.075c0.097,0.024,0.155,0.039,0.177,0.047C71.156-105.09,71.158-104.948,71.047-104.708z
		 M70.443-108.798c-0.007-0.625-0.213-1.169-0.618-1.632c-0.037-0.155-0.093-0.328-0.163-0.518
		c-0.018-0.018-0.049,0.006-0.097,0.071c-0.047,0.064-0.077,0.083-0.09,0.055c-0.645,0.609-1.338,1.144-2.079,1.6
		c-0.681,0.42-1.244,0.678-1.689,0.773c0.111,0.146,0.154,0.355,0.132,0.629c-0.024,0.272-0.014,0.464,0.028,0.574
		c0.095,0.221,0.342,0.428,0.741,0.621c1.146,0.171,2.04-0.03,2.684-0.604c0.497-0.077,0.828-0.344,0.995-0.799
		C70.354-108.214,70.406-108.471,70.443-108.798z"/>
</g>
<g>
	<g>
		<path fill-rule="evenodd" clip-rule="evenodd" fill="#5FBA46" d="M61.098,57.362c0.645-0.8,1.239-1.485,1.775-2.213
			c4.707-6.375,9.52-12.669,16.467-16.826c7.522-4.503,16.675-0.123,17.982,8.538c0.511,3.39-0.978,5.94-3.578,7.915
			c-1.154,0.876-2.438,1.58-3.891,2.508c0.722,0.395,1.334,0.728,1.943,1.063c7.236,3.986,7.664,12.299,0.849,17.078
			c-3.675,2.577-7.733,3.001-11.697,1.069c-3.125-1.522-5.946-3.672-8.883-5.57c-0.543-0.351-1.001-0.835-1.772-0.998
			c0.874,0.886,1.869,1.684,2.601,2.675c2.157,2.915,4.744,5.668,6.196,8.917c3.486,7.8-3.62,16.802-12.104,15.676
			c-2.448-0.325-4.18-1.921-5.566-3.86c-0.76-1.062-1.397-2.21-2.219-3.522c-0.421,0.729-0.738,1.29-1.063,1.844
			c-1.802,3.062-3.848,5.929-7.877,5.827c-4.379-0.109-7.749-2.189-9.901-6.021c-2.118-3.771-1.856-7.659-0.117-11.479
			c2.796-6.139,7.515-10.708,12.509-15.031c0.902-0.781,1.853-1.512,2.808-2.227c2.056-1.535,2.06-1.772-0.282-3.541
			c-1.785,2.339-3.515,4.736-5.378,7.023c-3.661,4.489-7.539,8.772-12.556,11.822c-4.017,2.443-8.155,2.719-12.25,0.274
			c-3.81-2.274-5.859-5.672-5.896-10.18c-0.023-2.854,1.471-4.906,3.619-6.531c1.151-0.872,2.441-1.559,3.813-2.42
			c-1.107-0.664-2.117-1.24-3.097-1.863c-6.369-4.049-5.399-9.817-1.812-14.306c3.653-4.572,9.919-5.411,15.765-2.357
			c6.758,3.53,11.713,9.051,16.349,14.916c0.286,0.362,0.553,0.745,0.86,1.09c0.173,0.191,0.411,0.324,0.605,0.473
			c2.472-1.446,2.474-1.733,0.219-3.331c-6.09-4.316-11.874-8.989-16.196-15.17c-3.857-5.515-3.75-10.804,0.092-15.384
			c3.34-3.983,9.231-5.444,12.812-2.891c1.569,1.117,2.697,2.866,3.966,4.379c0.41,0.49,0.627,1.141,1.058,1.955
			c0.718-1.202,1.272-2.219,1.908-3.184c3.323-5.037,7.91-6.01,13.038-2.79c5.573,3.5,7.022,10.537,3.471,17.071
			c-3.167,5.827-7.85,10.319-12.893,14.482c-0.615,0.508-1.244,0.998-1.876,1.483C58.889,55.284,58.883,55.444,61.098,57.362z
			 M61.312,59.27c-2.462,1.372-2.479,1.748-0.41,3.254c1.877,1.367,3.721,2.779,5.566,4.191c0.94,0.72,1.848,1.483,2.771,2.228
			c0.047-0.074,0.092-0.147,0.139-0.222C66.717,65.603,64.057,62.484,61.312,59.27z"/>
	</g>
	<g>
		<path fill="#5FBA46" d="M58.191,90.283c-17.708,0-32.116-14.408-32.116-32.117c0-17.709,14.408-32.117,32.116-32.117
			c17.71,0,32.118,14.408,32.118,32.117C90.31,75.875,75.901,90.283,58.191,90.283z M58.191,27.927
			c-16.673,0-30.238,13.565-30.238,30.239s13.565,30.238,30.238,30.238c16.675,0,30.239-13.564,30.239-30.238
			S74.866,27.927,58.191,27.927z"/>
	</g>
	<g>
		<path fill="#5FBA46" d="M12.49,58.372l-9.992-0.85l0.156-1.83l7.219-4.051l-6.825-0.58l0.142-1.668l9.991,0.849l-0.158,1.864
			l-7.216,4.019l6.825,0.58L12.49,58.372z"/>
		<path fill="#5FBA46" d="M13.672,48.247l-9.626-2.81l1.757-6.015l1.32,0.386l-1.172,4.012l2.686,0.785l0.96-3.29l1.289,0.375
			l-0.961,3.29l2.966,0.866l1.261-4.319l1.365,0.4L13.672,48.247z"/>
		<path fill="#5FBA46" d="M16.534,39.486l-9.995-2.625l0.948-1.729l7.313,1.922l-5.604-5.042l0.836-1.527l7.187,2.069l-5.474-5.194
			l0.693-1.266l7.531,7.124l-0.958,1.748l-6.772-1.95l5.252,4.725L16.534,39.486z"/>
		<path fill="#5FBA46" d="M24.741,27.022l-6.694-7.466l1.554-1.393l2.718,3.031l3.087-2.768l-2.718-3.032l1.555-1.393l6.693,7.465
			l-1.554,1.394l-3.053-3.405l-3.087,2.768l3.053,3.406L24.741,27.022z"/>
		<path fill="#5FBA46" d="M31.624,20.868l-1.49-10.657l1.822-1.018l8.302,6.845l-1.87,1.045l-2.217-1.826l-3.619,2.024l0.396,2.846
			L31.624,20.868z M32.35,15.866l2.72-1.521l-3.312-2.728L32.35,15.866z"/>
		<path fill="#5FBA46" d="M41.221,15.819l-3.077-9.544l3.243-1.046c0.958-0.309,1.747-0.364,2.364-0.164
			c0.618,0.2,1.038,0.646,1.26,1.338c0.371,1.148-0.131,2.207-1.503,3.176c1.924-0.141,3.099,0.446,3.523,1.762
			c0.245,0.761,0.171,1.429-0.22,2.003c-0.391,0.575-1.074,1.019-2.05,1.334L41.221,15.819z M41.294,9.645l0.471-0.151
			c0.559-0.18,0.959-0.46,1.199-0.842c0.24-0.382,0.284-0.808,0.131-1.282c-0.141-0.438-0.37-0.693-0.685-0.765
			c-0.315-0.072-0.84,0.011-1.575,0.248l-0.4,0.128L41.294,9.645z M42.654,13.862l0.426-0.137c0.834-0.269,1.38-0.543,1.638-0.824
			c0.259-0.279,0.312-0.657,0.159-1.129c-0.156-0.486-0.498-0.822-1.026-1.008c-0.527-0.186-1.113-0.175-1.758,0.033l-0.387,0.125
			L42.654,13.862z"/>
		<path fill="#5FBA46" d="M49.304,13.519l-1.742-9.875l2.056-0.362l1.741,9.875L49.304,13.519z"/>
		<path fill="#5FBA46" d="M55.991,12.688l-0.227-8.649l-3.589,0.094l-0.037-1.375l9.271-0.244l0.037,1.375l-3.59,0.095l0.228,8.648
			L55.991,12.688z"/>
		<path fill="#5FBA46" d="M62.094,12.604l0.27-1.7c0.996,0.616,1.873,0.984,2.631,1.104c0.53,0.084,0.968,0.033,1.312-0.155
			c0.342-0.188,0.546-0.485,0.61-0.891c0.051-0.321-0.002-0.607-0.159-0.859c-0.156-0.251-0.478-0.57-0.966-0.958L65.188,8.67
			c-0.81-0.64-1.36-1.218-1.652-1.734c-0.294-0.515-0.392-1.078-0.295-1.69c0.13-0.816,0.534-1.424,1.213-1.824
			S65.965,2.9,66.95,3.057c0.791,0.125,1.661,0.381,2.617,0.766l-0.253,1.585c-0.952-0.541-1.723-0.856-2.312-0.95
			c-0.456-0.073-0.835-0.029-1.143,0.131c-0.307,0.16-0.486,0.404-0.539,0.733c-0.042,0.273,0.015,0.527,0.174,0.763
			s0.481,0.544,0.965,0.927l0.646,0.508c0.87,0.687,1.45,1.285,1.739,1.792c0.289,0.507,0.383,1.084,0.28,1.732
			c-0.146,0.919-0.602,1.585-1.367,1.999c-0.766,0.413-1.748,0.525-2.947,0.334C64.017,13.252,63.111,12.994,62.094,12.604z"/>
	</g>
</g>
</svg>
